<?xml version="1.0" encoding="UTF-8"?>
<svg version="1.1" xmlns="http://www.w3.org/2000/svg" width="225" height="225">
<path d="M0 0 C74.25 0 148.5 0 225 0 C225 74.25 225 148.5 225 225 C150.75 225 76.5 225 0 225 C0 150.75 0 76.5 0 0 Z " fill="#626262" transform="translate(0,0)"/>
<path d="M0 0 C74.25 0 148.5 0 225 0 C225 29.37 225 58.74 225 89 C150.75 89 76.5 89 0 89 C0 59.63 0 30.26 0 0 Z " fill="#7F7F7F" transform="translate(0,136)"/>
<path d="M0 0 C74.25 0 148.5 0 225 0 C225 21.78 225 43.56 225 66 C150.75 66 76.5 66 0 66 C0 44.22 0 22.44 0 0 Z " fill="#525252" transform="translate(0,0)"/>
<path d="M0 0 C74.25 0 148.5 0 225 0 C225 19.47 225 38.94 225 59 C215.1 59 205.2 59 195 59 C194.938125 55.926875 194.87625 52.85375 194.8125 49.6875 C194.77153198 48.24056763 194.77153198 48.24056763 194.72973633 46.7644043 C194.72224365 46.00039307 194.71475098 45.23638184 194.70703125 44.44921875 C194.68346558 43.27879028 194.68346558 43.27879028 194.65942383 42.0847168 C195 40 195 40 198 37 C197.01 32.545 197.01 32.545 196 28 C176.86 27.67 157.72 27.34 138 27 C138 30.3 138 33.6 138 37 C135.03 37 132.06 37 129 37 C129 39.64 129 42.28 129 45 C127.35 45 125.7 45 124 45 C124 45.66 124 46.32 124 47 C120.04 47 116.08 47 112 47 C112 40.73 112 34.46 112 28 C75.04 27.67 38.08 27.34 0 27 C0 18.09 0 9.18 0 0 Z " fill="#676770" transform="translate(0,0)"/>
<path d="M0 0 C18.15 0 36.3 0 55 0 C54.34 2.31 53.68 4.62 53 7 C51.83428467 7.01458252 50.66856934 7.02916504 49.4675293 7.04418945 C45.14543878 7.10213117 40.82387153 7.17936394 36.50219727 7.26245117 C34.63118986 7.29572002 32.76008162 7.32374585 30.88891602 7.34643555 C28.20024617 7.37994588 25.51250202 7.43225865 22.82421875 7.48828125 C21.56782845 7.49786613 21.56782845 7.49786613 20.28605652 7.50764465 C15.91805632 7.47415769 15.91805632 7.47415769 12.25495911 9.52702332 C11.8408226 10.01310562 11.4266861 10.49918793 11 11 C11.33 10.67 11.66 10.34 12 10 C14.33297433 9.95907063 16.66705225 9.95758277 19 10 C19 10.66 19 11.32 19 12 C19.33 11.34 19.66 10.68 20 10 C21.32 10 22.64 10 24 10 C24 9.34 24 8.68 24 8 C34.23 8 44.46 8 55 8 C55.495 10.475 55.495 10.475 56 13 C54.02 13.99 52.04 14.98 50 16 C50.66 16 51.32 16 52 16 C53.66666667 16 55.33333333 16 57 16 C57 14.68 57 13.36 57 12 C59.97 12 62.94 12 66 12 C66.495 13.485 66.495 13.485 67 15 C66.34 15.66 65.68 16.32 65 17 C65 17.66 65 18.32 65 19 C62.69 19.66 60.38 20.32 58 21 C58 20.34 58 19.68 58 19 C56.54207031 19.2475 56.54207031 19.2475 55.0546875 19.5 C50.73184308 20.11848253 46.48264172 20.07513175 42.125 20 C39.41063823 19.95460933 36.71561183 19.95246194 34 20 C33.505 20.495 33.505 20.495 33 21 C30.97174509 21.19316713 28.94276079 21.38325788 26.91015625 21.5234375 C24.5989539 21.87245461 24.5989539 21.87245461 23 25 C31.39898453 25.13619975 39.6310753 24.72773258 48 24 C43.38 24 38.76 24 34 24 C34 23.34 34 22.68 34 22 C45 22 56 22 67 22 C67 22.66 67 23.32 67 24 C68.98 24 70.96 24 73 24 C73 23.34 73 22.68 73 22 C82.33333333 22 91.66666667 22 101 22 C101 21.34 101 20.68 101 20 C102.32 19.34 103.64 18.68 105 18 C103.35 18 101.7 18 100 18 C100.25 16.125 100.25 16.125 101 14 C103.0625 12.75 103.0625 12.75 105 12 C104.01 11.34 103.02 10.68 102 10 C102.99 9.34 103.98 8.68 105 8 C100.37355096 7.95049075 95.74725682 7.91422884 91.12060547 7.89013672 C89.54733595 7.88009113 87.97408504 7.86645219 86.40087891 7.84912109 C84.13699748 7.82480904 81.87336334 7.81350253 79.609375 7.8046875 C78.90818542 7.79436493 78.20699585 7.78404236 77.48455811 7.77340698 C73.81436524 7.77256743 71.11910787 7.97887405 68 10 C67.01 9.34 66.02 8.68 65 8 C65 7.34 65 6.68 65 6 C62.03 6 59.06 6 56 6 C55.505 5.01 55.505 5.01 55 4 C56.04800781 3.90912109 56.04800781 3.90912109 57.1171875 3.81640625 C58.02726562 3.73261719 58.93734375 3.64882812 59.875 3.5625 C60.77992187 3.48128906 61.68484375 3.40007812 62.6171875 3.31640625 C65.01110861 3.13010715 65.01110861 3.13010715 67 2 C67 1.34 67 0.68 67 0 C79.54 0 92.08 0 105 0 C105 1.65 105 3.3 105 5 C105.99 5.495 105.99 5.495 107 6 C107 5.34 107 4.68 107 4 C126.47 4 145.94 4 166 4 C166 11.59 166 19.18 166 27 C91.75 27 17.5 27 -59 27 C-59 20.07 -59 13.14 -59 6 C-39.86 6 -20.72 6 -1 6 C-0.67 4.02 -0.34 2.04 0 0 Z M54 6 C56 7 56 7 56 7 Z M94 8 C96.64 8 99.28 8 102 8 C102 8.33 102 8.66 102 9 C99.36 9.33 96.72 9.66 94 10 C94 9.34 94 8.68 94 8 Z M65 10 C67 11 67 11 67 11 Z M90 10 C91.32 10.33 92.64 10.66 94 11 C92.68 11.33 91.36 11.66 90 12 C90 11.34 90 10.68 90 10 Z M84 8 C85.98 8 87.96 8 90 8 C89.01 9.485 89.01 9.485 88 11 C90.39763185 13.39763185 91.33273498 13.34280586 94.625 13.625 C95.44226563 13.69976562 96.25953125 13.77453125 97.1015625 13.8515625 C97.72804687 13.90054688 98.35453125 13.94953125 99 14 C99 14.33 99 14.66 99 15 C88.605 15.495 88.605 15.495 78 16 C78 15.34 78 14.68 78 14 C74.37 14 70.74 14 67 14 C67 13.34 67 12.68 67 12 C68.58941406 11.90912109 68.58941406 11.90912109 70.2109375 11.81640625 C71.59897221 11.73199873 72.98699232 11.64735083 74.375 11.5625 C75.07367188 11.52318359 75.77234375 11.48386719 76.4921875 11.44335938 C80.37360492 11.25719866 80.37360492 11.25719866 84 10 C84 9.34 84 8.68 84 8 Z M76 16 C78 17 78 17 78 17 Z M78 18 C85.26 18 92.52 18 100 18 C100 18.33 100 18.66 100 19 C92.74 19 85.48 19 78 19 C78 18.67 78 18.34 78 18 Z M67 20 C70.96 20 74.92 20 79 20 C79 20.33 79 20.66 79 21 C73.06 21.495 73.06 21.495 67 22 C67 21.34 67 20.68 67 20 Z M24 24 C27.3 24 30.6 24 34 24 C34 24.33 34 24.66 34 25 C30.7 25 27.4 25 24 25 C24 24.67 24 24.34 24 24 Z " fill="#757575" transform="translate(59,109)"/>
<path d="M0 0 C65.34 0 130.68 0 198 0 C198 1.32 198 2.64 198 4 C198.46743805 8.65177726 198.46743805 8.65177726 200 13 C194.40848567 14.17031695 189.91864954 14.16198899 185 11 C184.67 10.01 184.34 9.02 184 8 C181.64046906 10.35953094 181.50858587 11.77895617 181 15 C179.02 15.66 177.04 16.32 175 17 C175 17.66 175 18.32 175 19 C175.99 19.99 175.99 19.99 177 21 C118.59 21 60.18 21 0 21 C0 14.07 0 7.14 0 0 Z M183 12 C186 13 186 13 186 13 Z " fill="#393939" transform="translate(0,67)"/>
<path d="M0 0 C74.25 0 148.5 0 225 0 C225 2.31 225 4.62 225 7 C205.53 7 186.06 7 166 7 C166 7.66 166 8.32 166 9 C153.13 9 140.26 9 127 9 C127 7.35 127 5.7 127 4 C126.67 4.33 126.34 4.66 126 5 C126 5.66 126 6.32 126 7 C122.7 7.33 119.4 7.66 116 8 C119.3 8 122.6 8 126 8 C126.495 9.98 126.495 9.98 127 12 C127 11.34 127 10.68 127 10 C139.87 10 152.74 10 166 10 C165.67 11.65 165.34 13.3 165 15 C165.36856864 17.23167185 165.36856864 17.23167185 166 19 C163.69 19 161.38 19 159 19 C159 19.66 159 20.32 159 21 C161.31 20.67 163.62 20.34 166 20 C166 20.99 166 21.98 166 23 C164.02 23 162.04 23 160 23 C160 23.66 160 24.32 160 25 C156.04 25 152.08 25 148 25 C148 25.66 148 26.32 148 27 C147.195625 26.7834375 147.195625 26.7834375 146.375 26.5625 C143.60084173 25.90546252 140.81474612 25.44780052 138 25 C138 25.66 138 26.32 138 27 C136 27 134 27 132 27 C134.31 27.33 136.62 27.66 139 28 C139 28.33 139 28.66 139 29 C129.76 29 120.52 29 111 29 C111 28.67 111 28.34 111 28 C113.97 27.67 116.94 27.34 120 27 C119.01 26.01 119.01 26.01 118 25 C118 25.66 118 26.32 118 27 C115.36 27 112.72 27 110 27 C110 26.67 110 26.34 110 26 C104.39 25.67 98.78 25.34 93 25 C94.16277032 26.39156484 94.16277032 26.39156484 97.37890625 26.09765625 C98.77347077 26.09098369 100.16801743 26.07902532 101.5625 26.0625 C102.62887695 26.05573242 102.62887695 26.05573242 103.71679688 26.04882812 C105.47790013 26.03700864 107.23896036 26.01907263 109 26 C104.23041276 30.76958724 93.10011385 29.05546863 86.6875 29.0625 C84.79161725 29.04679446 82.89574215 29.02792419 81 29 C80.505 27.515 80.505 27.515 80 26 C82.70649269 24.30844207 85.0661133 23.7849434 88.1875 23.4375 C91.78190939 23.42538466 91.78190939 23.42538466 93 22 C94.75724813 21.91269149 96.51795275 21.89301354 98.27734375 21.90234375 C99.34791016 21.90556641 100.41847656 21.90878906 101.52148438 21.91210938 C102.64876953 21.92048828 103.77605469 21.92886719 104.9375 21.9375 C106.62262695 21.94426758 106.62262695 21.94426758 108.34179688 21.95117188 C111.22790782 21.96332027 114.1139282 21.98102997 117 22 C117.66 22 118.32 22 119 22 C118.65772428 19.02934491 118.65772428 19.02934491 118 16 C117.01 15.505 117.01 15.505 116 15 C116.495 17.97 116.495 17.97 117 21 C109.08 21 101.16 21 93 21 C96.59632632 17.40367368 98.84674497 17.50074355 103.625 17.375 C108.17979745 17.61291628 108.17979745 17.61291628 112 16 C107.05 15.67 102.1 15.34 97 15 C97 14.67 97 14.34 97 14 C104.92 13.505 104.92 13.505 113 13 C113 12.67 113 12.34 113 12 C98.15 11.505 98.15 11.505 83 11 C83 12.98 83 14.96 83 17 C79.7 17 76.4 17 73 17 C73 16.01 73 15.02 73 14 C72.01 13.505 72.01 13.505 71 13 C71 13.66 71 14.32 71 15 C68.36 15 65.72 15 63 15 C62.505 13.515 62.505 13.515 62 12 C62.62648437 11.95101562 63.25296875 11.90203125 63.8984375 11.8515625 C64.71570313 11.77679688 65.53296875 11.70203125 66.375 11.625 C67.18710938 11.55539063 67.99921875 11.48578125 68.8359375 11.4140625 C71.20334191 11.17107412 71.20334191 11.17107412 73 9 C73 8.01 73 7.02 73 6 C71.0509375 5.7525 71.0509375 5.7525 69.0625 5.5 C68.33160156 5.4071875 67.60070312 5.314375 66.84765625 5.21875 C65.14458268 4.98040465 65.14458268 4.98040465 64 5 C66.64 5.33 69.28 5.66 72 6 C72 6.33 72 6.66 72 7 C67.38 7 62.76 7 58 7 C58 7.66 58 8.32 58 9 C38.86 9 19.72 9 0 9 C0 6.03 0 3.06 0 0 Z M153 11 C153.33 11.66 153.66 12.32 154 13 C157.465 12.505 157.465 12.505 161 12 C161 11.67 161 11.34 161 11 C158.36 11 155.72 11 153 11 Z M149 13 C149.33 13.66 149.66 14.32 150 15 C150.99 14.34 151.98 13.68 153 13 C151.68 13 150.36 13 149 13 Z M143 11 C143 11.66 143 12.32 143 13 C139.95786733 14.52106634 136.71952428 14.37429338 133.375 14.5625 C132.31539062 14.62727539 132.31539062 14.62727539 131.234375 14.69335938 C129.48981463 14.79944751 127.74493303 14.90022889 126 15 C126.33 15.66 126.66 16.32 127 17 C130.3 17 133.6 17 137 17 C137.33 17.66 137.66 18.32 138 19 C147.9 18.505 147.9 18.505 158 18 C158 17.67 158 17.34 158 17 C157.37351563 16.96261719 156.74703125 16.92523438 156.1015625 16.88671875 C155.28429687 16.82097656 154.46703125 16.75523438 153.625 16.6875 C152.81289062 16.62949219 152.00078125 16.57148437 151.1640625 16.51171875 C149 16 149 16 147 13 C147.66 12.34 148.32 11.68 149 11 C147.02 11 145.04 11 143 11 Z M137 21 C137 21.33 137 21.66 137 22 C144.26 22 151.52 22 159 22 C159 21.67 159 21.34 159 21 C151.74 21 144.48 21 137 21 Z M126 23 C126.33 23.66 126.66 24.32 127 25 C132.445 24.505 132.445 24.505 138 24 C138 23.67 138 23.34 138 23 C134.04 23 130.08 23 126 23 Z M83 27 C83 27.33 83 27.66 83 28 C86.3 28 89.6 28 93 28 C93 27.67 93 27.34 93 27 C89.7 27 86.4 27 83 27 Z " fill="#808080" transform="translate(0,106)"/>
<path d="M0 0 C74.25 0 148.5 0 225 0 C225 8.91 225 17.82 225 27 C150.75 27 76.5 27 0 27 C0 25.35 0 23.7 0 22 C56.76 21.67 113.52 21.34 172 21 C172 20.01 172 19.02 172 18 C174.475 17.01 174.475 17.01 177 16 C176.835 15.195625 176.67 14.39125 176.5 13.5625 C176 11 176 11 176 10 C180.95 9.01 180.95 9.01 186 8 C186 9.32 186 10.64 186 12 C187.1446875 11.938125 187.1446875 11.938125 188.3125 11.875 C191 12 191 12 194 14 C194.66 13.67 195.32 13.34 196 13 C196 12.67 196 12.34 196 12 C193.36 11.67 190.72 11.34 188 11 C188.33 9.35 188.66 7.7 189 6 C189.928125 5.9175 190.85625 5.835 191.8125 5.75 C195.4837263 5.24574012 195.4837263 5.24574012 198 1 C132.66 1 67.32 1 0 1 C0 0.67 0 0.34 0 0 Z M193 15 C194 17 194 17 194 17 Z " fill="#8D8D8D" transform="translate(0,66)"/>
<path d="M0 0 C12.54 0 25.08 0 38 0 C38 1.65 38 3.3 38 5 C38.66 5.33 39.32 5.66 40 6 C40 5.34 40 4.68 40 4 C59.47 4 78.94 4 99 4 C99 11.59 99 19.18 99 27 C70.62 27 42.24 27 13 27 C13 26.34 13 25.68 13 25 C8.71 25 4.42 25 0 25 C0 24.67 0 24.34 0 24 C1.98 24 3.96 24 6 24 C6 23.34 6 22.68 6 22 C15.33333333 22 24.66666667 22 34 22 C34 21.34 34 20.68 34 20 C35.32 19.34 36.64 18.68 38 18 C36.35 18 34.7 18 33 18 C33.25 16.125 33.25 16.125 34 14 C36.0625 12.75 36.0625 12.75 38 12 C37.01 11.34 36.02 10.68 35 10 C35.99 9.34 36.98 8.68 38 8 C33.37355096 7.95049075 28.74725682 7.91422884 24.12060547 7.89013672 C22.54733595 7.88009113 20.97408504 7.86645219 19.40087891 7.84912109 C17.13699748 7.82480904 14.87336334 7.81350253 12.609375 7.8046875 C11.90818542 7.79436493 11.20699585 7.78404236 10.48455811 7.77340698 C6.81436524 7.77256743 4.11910787 7.97887405 1 10 C0.01 9.34 -0.98 8.68 -2 8 C-2 7.34 -2 6.68 -2 6 C-4.97 6 -7.94 6 -11 6 C-11.33 5.34 -11.66 4.68 -12 4 C-10.95199219 3.90912109 -10.95199219 3.90912109 -9.8828125 3.81640625 C-8.97273438 3.73261719 -8.06265625 3.64882812 -7.125 3.5625 C-6.22007813 3.48128906 -5.31515625 3.40007812 -4.3828125 3.31640625 C-1.98889139 3.13010715 -1.98889139 3.13010715 0 2 C0 1.34 0 0.68 0 0 Z M-13 6 C-11 7 -11 7 -11 7 Z M-2 10 C0 11 0 11 0 11 Z M11 18 C18.26 18 25.52 18 33 18 C33 18.33 33 18.66 33 19 C25.74 19 18.48 19 11 19 C11 18.67 11 18.34 11 18 Z " fill="#797979" transform="translate(126,109)"/>
<path d="M0 0 C74.25 0 148.5 0 225 0 C225 10.89 225 21.78 225 33 C215.1 33 205.2 33 195 33 C194.938125 29.926875 194.87625 26.85375 194.8125 23.6875 C194.77153198 22.24056763 194.77153198 22.24056763 194.72973633 20.7644043 C194.72224365 20.00039307 194.71475098 19.23638184 194.70703125 18.44921875 C194.68346558 17.27879028 194.68346558 17.27879028 194.65942383 16.0847168 C195 14 195 14 198 11 C197.01 6.545 197.01 6.545 196 2 C176.86 1.67 157.72 1.34 138 1 C138 4.3 138 7.6 138 11 C135.03 11 132.06 11 129 11 C129 13.64 129 16.28 129 19 C127.35 19 125.7 19 124 19 C124 19.66 124 20.32 124 21 C120.04 21 116.08 21 112 21 C112 14.73 112 8.46 112 2 C75.04 1.67 38.08 1.34 0 1 C0 0.67 0 0.34 0 0 Z " fill="#737373" transform="translate(0,26)"/>
<path d="M0 0 C74.25 0 148.5 0 225 0 C225 1.65 225 3.3 225 5 C180.12 5 135.24 5 89 5 C89 5.66 89 6.32 89 7 C59.63 7 30.26 7 0 7 C0 4.69 0 2.38 0 0 Z " fill="#949494" transform="translate(0,136)"/>
<path d="M0 0 C12.54 0 25.08 0 38 0 C37.67 2.31 37.34 4.62 37 7 C37.99 7.33 38.98 7.66 40 8 C40 9.98 40 11.96 40 14 C38.68 14 37.36 14 36 14 C35.81824219 14.94359375 35.81824219 14.94359375 35.6328125 15.90625 C35.46523438 16.7621875 35.29765625 17.618125 35.125 18.5 C34.96257813 19.3353125 34.80015625 20.170625 34.6328125 21.03125 C33.84892805 24.7087326 32.91195824 28.35216704 32 32 C21.44 32 10.88 32 0 32 C0 21.44 0 10.88 0 0 Z M31 8 C31 8.33 31 8.66 31 9 C33.97 9.495 33.97 9.495 37 10 C37 9.34 37 8.68 37 8 C35.02 8 33.04 8 31 8 Z " fill="#666666" transform="translate(0,27)"/>
<path d="M0 0 C15.18 0 30.36 0 46 0 C46 1.32 46 2.64 46 4 C46.46743805 8.65177726 46.46743805 8.65177726 48 13 C42.40848567 14.17031695 37.91864954 14.16198899 33 11 C32.505 9.515 32.505 9.515 32 8 C29.64046906 10.35953094 29.50858587 11.77895617 29 15 C27.02 15.66 25.04 16.32 23 17 C23 17.66 23 18.32 23 19 C23.66 19.66 24.32 20.32 25 21 C9.82 21 -5.36 21 -21 21 C-21 20.67 -21 20.34 -21 20 C-19.35 20 -17.7 20 -16 20 C-16 19.34 -16 18.68 -16 18 C-12.66666667 18 -9.33333333 18 -6 18 C-6 17.34 -6 16.68 -6 16 C-5.34 15.34 -4.68 14.68 -4 14 C-3.83318891 10.91652174 -3.83318891 10.91652174 -4 8 C-3.34 8 -2.68 8 -2 8 C-2 8.66 -2 9.32 -2 10 C-1.34 10 -0.68 10 0 10 C0 9.34 0 8.68 0 8 C0.66 7.34 1.32 6.68 2 6 C0.35 6.33 -1.3 6.66 -3 7 C-2.34 6.67 -1.68 6.34 -1 6 C-1.33 4.68 -1.66 3.36 -2 2 C-1.34 2 -0.68 2 0 2 C0 1.34 0 0.68 0 0 Z M-16 12 C-15.360625 12.185625 -14.72125 12.37125 -14.0625 12.5625 C-13.0415625 12.7790625 -13.0415625 12.7790625 -12 13 C-11.67 12.67 -11.34 12.34 -11 12 C-10.01 12.33 -9.02 12.66 -8 13 C-8.33 14.65 -8.66 16.3 -9 18 C-9.99 17.67 -10.98 17.34 -12 17 C-13.0209375 16.7834375 -13.0209375 16.7834375 -14.0625 16.5625 C-16 16 -16 16 -18 14 C-17.34 14 -16.68 14 -16 14 C-16 13.34 -16 12.68 -16 12 Z M31 12 C34 13 34 13 34 13 Z " fill="#565656" transform="translate(152,67)"/>
<path d="M0 0 C19.14 0 38.28 0 58 0 C58 3.3 58 6.6 58 10 C29.62 10 1.24 10 -28 10 C-28 9.34 -28 8.68 -28 8 C-32.29 8 -36.58 8 -41 8 C-41 7.67 -41 7.34 -41 7 C-39.02 7 -37.04 7 -35 7 C-35 6.34 -35 5.68 -35 5 C-25.66666667 5 -16.33333333 5 -7 5 C-7 4.34 -7 3.68 -7 3 C-5.02 3 -3.04 3 -1 3 C-0.67 2.01 -0.34 1.02 0 0 Z " fill="#959595" transform="translate(167,126)"/>
<path d="M0 0 C74.25 0 148.5 0 225 0 C225 2.31 225 4.62 225 7 C205.53 7 186.06 7 166 7 C166 7.66 166 8.32 166 9 C153.13 9 140.26 9 127 9 C127 7.35 127 5.7 127 4 C139.87 3.67 152.74 3.34 166 3 C166 2.34 166 1.68 166 1 C111.22 1 56.44 1 0 1 C0 0.67 0 0.34 0 0 Z " fill="#B9B9B9" transform="translate(0,106)"/>
<path d="M0 0 C14.52 0 29.04 0 44 0 C43.67 0.99 43.34 1.98 43 3 C44.37168238 5.19038423 44.37168238 5.19038423 46 7 C45.34 7.66 44.68 8.32 44 9 C44 9.99 44 10.98 44 12 C44 14.31 44 16.62 44 19 C49.61 19.33 55.22 19.66 61 20 C61 20.33 61 20.66 61 21 C50.11 21 39.22 21 28 21 C28.66 20.01 29.32 19.02 30 18 C30 17.01 30 16.02 30 15 C31 12.8125 31 12.8125 32 11 C31.34 11 30.68 11 30 11 C29.34 11.66 28.68 12.32 28 13 C26.01643517 13.71408334 24.01684563 14.38617742 22 15 C22 15.99 22 16.98 22 18 C22 18.33 22 18.66 22 19 C19.72923158 19.02699725 17.45837179 19.04639453 15.1875 19.0625 C13.29064453 19.07990234 13.29064453 19.07990234 11.35546875 19.09765625 C8 19 8 19 5 18 C3.33637583 17.65179959 1.67004829 17.31595508 0 17 C0.99 15.515 0.99 15.515 2 14 C1.34 14 0.68 14 0 14 C0 13.34 0 12.68 0 12 C0.99 11.34 1.98 10.68 3 10 C2.01 10 1.02 10 0 10 C0 9.34 0 8.68 0 8 C0.99 7.34 1.98 6.68 3 6 C2.690625 5.38125 2.38125 4.7625 2.0625 4.125 C1.375 2.75 0.6875 1.375 0 0 Z M-2 2 C-1.34 2 -0.68 2 0 2 C-0.33 2.66 -0.66 3.32 -1 4 C-1.33 3.34 -1.66 2.68 -2 2 Z M46 4 C47.32 4.33 48.64 4.66 50 5 C48.68 5.33 47.36 5.66 46 6 C46 5.34 46 4.68 46 4 Z M-2 10 C-1.34 10 -0.68 10 0 10 C-0.33 10.66 -0.66 11.32 -1 12 C-1.33 11.34 -1.66 10.68 -2 10 Z M-5 12 C-2 13 -2 13 0 14 C-0.33 14.66 -0.66 15.32 -1 16 C-3.31 15.67 -5.62 15.34 -8 15 C-7.01 14.67 -6.02 14.34 -5 14 C-5 13.34 -5 12.68 -5 12 Z M-8 16 C-5 17 -5 17 -5 17 Z M1 18 C5 19 5 19 5 19 Z " fill="#010101" transform="translate(66,67)"/>
<path d="M0 0 C74.25 0 148.5 0 225 0 C225 4.95 225 9.9 225 15 C217.08 15 209.16 15 201 15 C200.67 15.66 200.34 16.32 200 17 C198 15.625 198 15.625 196 14 C196 13.34 196 12.68 196 12 C193.36 11.67 190.72 11.34 188 11 C188.33 9.35 188.66 7.7 189 6 C189.928125 5.9175 190.85625 5.835 191.8125 5.75 C195.4837263 5.24574012 195.4837263 5.24574012 198 1 C132.66 1 67.32 1 0 1 C0 0.67 0 0.34 0 0 Z " fill="#B9B9B9" transform="translate(0,66)"/>
<path d="M0 0 C14.19 0 28.38 0 43 0 C43 0.66 43 1.32 43 2 C43.66 2.66 44.32 3.32 45 4 C45 4.66 45 5.32 45 6 C41.625 6.125 41.625 6.125 38 6 C37.34 5.34 36.68 4.68 36 4 C36 4.66 36 5.32 36 6 C34.68 6 33.36 6 32 6 C32 6.66 32 7.32 32 8 C31.34 7.67 30.68 7.34 30 7 C29.855625 6.34 29.71125 5.68 29.5625 5 C29.376875 4.34 29.19125 3.68 29 3 C28.01 2.67 27.02 2.34 26 2 C26 4.31 26 6.62 26 9 C26.99 9.33 27.98 9.66 29 10 C29.33 11.65 29.66 13.3 30 15 C28.68 15.33 27.36 15.66 26 16 C26 17.32 26 18.64 26 20 C17.42 20 8.84 20 0 20 C0 13.4 0 6.8 0 0 Z " fill="#767676" transform="translate(0,67)"/>
<path d="M0 0 C7.26 0 14.52 0 22 0 C22 5.28 22 10.56 22 16 C19.36 16 16.72 16 14 16 C14 16.66 14 17.32 14 18 C12.68 17.67 11.36 17.34 10 17 C10.33 15.35 10.66 13.7 11 12 C10.34 12 9.68 12 9 12 C7.73638028 17.98685848 6.67581523 23.91766294 6 30 C9.3 30.33 12.6 30.66 16 31 C16 31.33 16 31.66 16 32 C9.4 32 2.8 32 -4 32 C-3 23 -3 23 -2 19 C-3.64079242 20.64079242 -3.60112342 22.77768765 -4 25 C-4.99 25.33 -5.98 25.66 -7 26 C-7 26.66 -7 27.32 -7 28 C-7.99 27.67 -8.98 27.34 -10 27 C-10.36923077 21.46153846 -10.36923077 21.46153846 -8.5 19.125 C-8.005 18.75375 -7.51 18.3825 -7 18 C-7.66 17.34 -8.32 16.68 -9 16 C-9.33 16.66 -9.66 17.32 -10 18 C-10.33 17.01 -10.66 16.02 -11 15 C-10.484375 14.649375 -9.96875 14.29875 -9.4375 13.9375 C-7.61719831 11.92309018 -7.61719831 11.92309018 -8.25 8.4375 C-8.81719909 5.16037491 -8.81719909 5.16037491 -10 3 C-9.04287109 2.92652344 -9.04287109 2.92652344 -8.06640625 2.8515625 C-7.24011719 2.77679687 -6.41382813 2.70203125 -5.5625 2.625 C-4.73878906 2.55539063 -3.91507813 2.48578125 -3.06640625 2.4140625 C-2.04353516 2.20910156 -2.04353516 2.20910156 -1 2 C-0.67 1.34 -0.34 0.68 0 0 Z " fill="#737373" transform="translate(171,27)"/>
<path d="M0 0 C2.64 0 5.28 0 8 0 C8 0.33 8 0.66 8 1 C5.36 1.33 2.72 1.66 0 2 C0 1.34 0 0.68 0 0 Z M-4 2 C-2.68 2.33 -1.36 2.66 0 3 C-1.32 3.33 -2.64 3.66 -4 4 C-4 3.34 -4 2.68 -4 2 Z M-10 0 C-8.02 0 -6.04 0 -4 0 C-4.99 1.485 -4.99 1.485 -6 3 C-3.60236815 5.39763185 -2.66726502 5.34280586 0.625 5.625 C1.44226563 5.69976562 2.25953125 5.77453125 3.1015625 5.8515625 C3.72804687 5.90054688 4.35453125 5.94953125 5 6 C5 6.33 5 6.66 5 7 C-5.395 7.495 -5.395 7.495 -16 8 C-16 7.34 -16 6.68 -16 6 C-19.63 6 -23.26 6 -27 6 C-27 5.34 -27 4.68 -27 4 C-25.41058594 3.90912109 -25.41058594 3.90912109 -23.7890625 3.81640625 C-22.40102779 3.73199873 -21.01300768 3.64735083 -19.625 3.5625 C-18.92632812 3.52318359 -18.22765625 3.48386719 -17.5078125 3.44335938 C-13.62639508 3.25719866 -13.62639508 3.25719866 -10 2 C-10 1.34 -10 0.68 -10 0 Z M-37 4 C-34.03 4 -31.06 4 -28 4 C-27.505 5.485 -27.505 5.485 -27 7 C-27.66 7.66 -28.32 8.32 -29 9 C-29 9.66 -29 10.32 -29 11 C-31.31 11.66 -33.62 12.32 -36 13 C-36 12.34 -36 11.68 -36 11 C-36.97195312 11.165 -37.94390625 11.33 -38.9453125 11.5 C-43.26815692 12.11848253 -47.51735828 12.07513175 -51.875 12 C-54.58936177 11.95460933 -57.28438817 11.95246194 -60 12 C-60.33 12.33 -60.66 12.66 -61 13 C-63.02825491 13.19316713 -65.05723921 13.38325788 -67.08984375 13.5234375 C-69.4010461 13.87245461 -69.4010461 13.87245461 -71 17 C-62.60101547 17.13619975 -54.3689247 16.72773258 -46 16 C-50.62 16 -55.24 16 -60 16 C-60 15.34 -60 14.68 -60 14 C-49 14 -38 14 -27 14 C-27.33 14.99 -27.66 15.98 -28 17 C-21.07 17.495 -21.07 17.495 -14 18 C-14 18.33 -14 18.66 -14 19 C-59.87 19 -105.74 19 -153 19 C-153 18.67 -153 18.34 -153 18 C-132.54 18 -112.08 18 -91 18 C-90.67 17.34 -90.34 16.68 -90 16 C-87.49758271 12.8061253 -84.87321233 12.18033041 -81 11.25 C-79.948125 10.98703125 -78.89625 10.7240625 -77.8125 10.453125 C-74.56549828 9.92999695 -72.90136979 10.54931511 -70 12 C-70 11.34 -70 10.68 -70 10 C-66.535 9.505 -66.535 9.505 -63 9 C-62.67 8.01 -62.34 7.02 -62 6 C-55.4 6 -48.8 6 -42 6 C-42.66 6.99 -43.32 7.98 -44 9 C-40.535 8.505 -40.535 8.505 -37 8 C-37 6.68 -37 5.36 -37 4 Z M-18 8 C-16 9 -16 9 -16 9 Z M-27 12 C-23.04 12 -19.08 12 -15 12 C-15 12.33 -15 12.66 -15 13 C-20.94 13.495 -20.94 13.495 -27 14 C-27 13.34 -27 12.68 -27 12 Z M-70 16 C-66.7 16 -63.4 16 -60 16 C-60 16.33 -60 16.66 -60 17 C-63.3 17 -66.6 17 -70 17 C-70 16.67 -70 16.34 -70 16 Z " fill="#1A1A1A" transform="translate(153,117)"/>
<path d="M0 0 C74.25 0 148.5 0 225 0 C225 0.33 225 0.66 225 1 C196.29 1 167.58 1 138 1 C138 4.3 138 7.6 138 11 C135.03 11 132.06 11 129 11 C129 13.64 129 16.28 129 19 C127.35 19 125.7 19 124 19 C124 19.66 124 20.32 124 21 C120.04 21 116.08 21 112 21 C112 14.73 112 8.46 112 2 C75.04 1.67 38.08 1.34 0 1 C0 0.67 0 0.34 0 0 Z " fill="#D2D2D2" transform="translate(0,26)"/>
<path d="M0 0 C0.96099609 0.00451172 1.92199219 0.00902344 2.91210938 0.01367188 C5.25397422 0.02532294 7.59570181 0.04167975 9.9375 0.0625 C9.6075 0.990625 9.2775 1.91875 8.9375 2.875 C7.78782996 5.98279291 7.78782996 5.98279291 7.9375 9.0625 C7.2775 9.7225 6.6175 10.3825 5.9375 11.0625 C5.9375 11.7225 5.9375 12.3825 5.9375 13.0625 C4.2875 13.7225 2.6375 14.3825 0.9375 15.0625 C0.9375 15.3925 0.9375 15.7225 0.9375 16.0625 C2.5875 16.0625 4.2375 16.0625 5.9375 16.0625 C5.9375 17.0525 5.9375 18.0425 5.9375 19.0625 C5.133125 19.536875 4.32875 20.01125 3.5 20.5 C0.7796105 21.79605856 0.7796105 21.79605856 0.125 24.25 C0.0321875 25.1471875 0.0321875 25.1471875 -0.0625 26.0625 C0.5975 26.3925 1.2575 26.7225 1.9375 27.0625 C1.2775 27.0625 0.6175 27.0625 -0.0625 27.0625 C-0.0625 27.7225 -0.0625 28.3825 -0.0625 29.0625 C0.9275 29.3925 1.9175 29.7225 2.9375 30.0625 C3.2675 30.7225 3.5975 31.3825 3.9375 32.0625 C-2.0025 32.0625 -7.9425 32.0625 -14.0625 32.0625 C-14.0625 31.7325 -14.0625 31.4025 -14.0625 31.0625 C-12.0825 30.7325 -10.1025 30.4025 -8.0625 30.0625 C-8.7225 29.4025 -9.3825 28.7425 -10.0625 28.0625 C-10.0625 28.7225 -10.0625 29.3825 -10.0625 30.0625 C-11.3825 29.7325 -12.7025 29.4025 -14.0625 29.0625 C-14.0625 28.4025 -14.0625 27.7425 -14.0625 27.0625 C-13.0725 26.7325 -12.0825 26.4025 -11.0625 26.0625 C-8.82185277 23.73886584 -8.09693854 22.56759856 -7.875 19.3125 C-7.936875 18.57 -7.99875 17.8275 -8.0625 17.0625 C-8.7225 16.7325 -9.3825 16.4025 -10.0625 16.0625 C-10.0625 16.7225 -10.0625 17.3825 -10.0625 18.0625 C-12.0625 17.0625 -12.0625 17.0625 -13.0625 16.0625 C-14.72867115 16.02186168 -16.39638095 16.019779 -18.0625 16.0625 C-18.12308594 15.47082031 -18.18367187 14.87914062 -18.24609375 14.26953125 C-18.68293878 10.14974657 -19.17606903 6.11475588 -20.0625 2.0625 C-20.0625 1.7325 -20.0625 1.4025 -20.0625 1.0625 C-13.33065587 0.18563415 -6.7839632 -0.06137197 0 0 Z " fill="#2F2F2F" transform="translate(161.0625,26.9375)"/>
<path d="M0 0 C1.93166016 0.01740234 1.93166016 0.01740234 3.90234375 0.03515625 C5.19269531 0.04417969 6.48304687 0.05320312 7.8125 0.0625 C8.81152344 0.07410156 9.81054688 0.08570312 10.83984375 0.09765625 C10.76838135 0.68466309 10.69691895 1.27166992 10.62329102 1.87646484 C9.87935337 8.51537736 9.71940953 15.04685156 9.77734375 21.72265625 C9.78185547 22.72683594 9.78636719 23.73101562 9.79101562 24.765625 C9.8026539 27.2096619 9.82058289 29.65366753 9.83984375 32.09765625 C4.55984375 32.09765625 -0.72015625 32.09765625 -6.16015625 32.09765625 C-6.49015625 29.78765625 -6.82015625 27.47765625 -7.16015625 25.09765625 C-7.32515625 24.27265625 -7.49015625 23.44765625 -7.66015625 22.59765625 C-8.29018727 19.44750114 -8.70588455 16.27755817 -9.16015625 13.09765625 C-9.32515625 12.27265625 -9.49015625 11.44765625 -9.66015625 10.59765625 C-10.29025563 7.44715936 -10.72336039 4.28002608 -11.16015625 1.09765625 C-10.02578125 1.11828125 -8.89140625 1.13890625 -7.72265625 1.16015625 C-3.77437024 1.09088807 -3.79999964 0.11742891 0 0 Z " fill="#6B6B6B" transform="translate(99.16015625,26.90234375)"/>
<path d="M0 0 C2.31 0 4.62 0 7 0 C7 0.33 7 0.66 7 1 C4.69 1.33 2.38 1.66 0 2 C0 1.34 0 0.68 0 0 Z M-6 0 C-4.35 0 -2.7 0 -1 0 C-0.505 1.485 -0.505 1.485 0 3 C-0.33 3.66 -0.66 4.32 -1 5 C-2.66500443 5.34153937 -4.33178677 5.67449498 -6 6 C-6.66 6.66 -7.32 7.32 -8 8 C-10.63223267 8.24050903 -10.63223267 8.24050903 -14.01025391 8.22705078 C-15.90198837 8.22682419 -15.90198837 8.22682419 -17.8319397 8.22659302 C-19.21348222 8.21637898 -20.59502315 8.20594697 -21.9765625 8.1953125 C-23.38617757 8.19158288 -24.79579523 8.18873567 -26.20541382 8.18673706 C-29.91759382 8.17909655 -33.62961761 8.15944461 -37.34173584 8.1373291 C-41.12884406 8.11687959 -44.9159775 8.10773727 -48.703125 8.09765625 C-56.13548793 8.076199 -63.56772208 8.04205816 -71 8 C-71 5.69 -71 3.38 -71 1 C-63.70629585 0.9767404 -56.41259982 0.95901589 -49.11886597 0.94818783 C-45.73141156 0.94298863 -42.34398269 0.93594535 -38.95654297 0.92456055 C-35.0543552 0.91238859 -31.15220334 0.9067473 -27.25 0.90234375 C-26.04448486 0.89718246 -24.83896973 0.89202118 -23.59692383 0.88670349 C-17.63190988 0.88630848 -11.89671129 1.08181597 -6 2 C-6 1.34 -6 0.68 -6 0 Z " fill="#B4B4B4" transform="translate(71,127)"/>
<path d="M0 0 C1.34913483 -0.02719116 1.34913483 -0.02719116 2.7255249 -0.05493164 C3.52491486 -0.07616089 4.32430481 -0.09739014 5.1479187 -0.1192627 C7.11956787 0.08374023 7.11956787 0.08374023 9.11956787 2.08374023 C9.11956787 2.74374023 9.11956787 3.40374023 9.11956787 4.08374023 C5.81956787 4.41374023 2.51956787 4.74374023 -0.88043213 5.08374023 C2.41956787 5.08374023 5.71956787 5.08374023 9.11956787 5.08374023 C9.61456787 7.06374023 9.61456787 7.06374023 10.11956787 9.08374023 C11.43956787 9.41374023 12.75956787 9.74374023 14.11956787 10.08374023 C14.11956787 10.74374023 14.11956787 11.40374023 14.11956787 12.08374023 C12.46956787 12.08374023 10.81956787 12.08374023 9.11956787 12.08374023 C9.11956787 12.74374023 9.11956787 13.40374023 9.11956787 14.08374023 C3.06488037 14.27905273 3.06488037 14.27905273 1.11956787 14.08374023 C0.45956787 13.42374023 -0.20043213 12.76374023 -0.88043213 12.08374023 C-0.38543213 15.05374023 -0.38543213 15.05374023 0.11956787 18.08374023 C-7.80043213 18.08374023 -15.72043213 18.08374023 -23.88043213 18.08374023 C-20.28410581 14.48741392 -18.03368716 14.58448379 -13.25543213 14.45874023 C-8.70063467 14.69665652 -8.70063467 14.69665652 -4.88043213 13.08374023 C-9.83043213 12.75374023 -14.78043213 12.42374023 -19.88043213 12.08374023 C-19.88043213 11.75374023 -19.88043213 11.42374023 -19.88043213 11.08374023 C-11.96043213 10.58874023 -11.96043213 10.58874023 -3.88043213 10.08374023 C-3.88043213 9.75374023 -3.88043213 9.42374023 -3.88043213 9.08374023 C-18.73043213 8.58874023 -18.73043213 8.58874023 -33.88043213 8.08374023 C-33.88043213 10.06374023 -33.88043213 12.04374023 -33.88043213 14.08374023 C-37.18043213 14.08374023 -40.48043213 14.08374023 -43.88043213 14.08374023 C-43.88043213 13.09374023 -43.88043213 12.10374023 -43.88043213 11.08374023 C-44.54043213 10.75374023 -45.20043213 10.42374023 -45.88043213 10.08374023 C-45.88043213 10.74374023 -45.88043213 11.40374023 -45.88043213 12.08374023 C-48.52043213 12.08374023 -51.16043213 12.08374023 -53.88043213 12.08374023 C-54.21043213 11.09374023 -54.54043213 10.10374023 -54.88043213 9.08374023 C-54.25394775 9.03475586 -53.62746338 8.98577148 -52.98199463 8.93530273 C-52.164729 8.86053711 -51.34746338 8.78577148 -50.50543213 8.70874023 C-49.69332275 8.63913086 -48.88121338 8.56952148 -48.04449463 8.49780273 C-45.67709022 8.25481435 -45.67709022 8.25481435 -43.88043213 6.08374023 C-43.88043213 5.09374023 -43.88043213 4.10374023 -43.88043213 3.08374023 C-46.52043213 2.75374023 -49.16043213 2.42374023 -51.88043213 2.08374023 C-51.88043213 1.75374023 -51.88043213 1.42374023 -51.88043213 1.08374023 C-45.08521502 0.93985758 -38.28996481 0.79762234 -31.49468994 0.65649414 C-29.1864139 0.60836468 -26.87814549 0.55986791 -24.56988525 0.51098633 C-21.23852479 0.44050418 -17.90713848 0.37137402 -14.57574463 0.30249023 C-13.04544113 0.26967957 -13.04544113 0.26967957 -11.48422241 0.23620605 C-9.54575792 0.19661507 -7.60720359 0.16114621 -5.6685791 0.13037109 C-3.77881735 0.09876544 -1.88922783 0.05492384 0 0 Z " fill="#B4B4B4" transform="translate(116.88043212890625,108.916259765625)"/>
<path d="M0 0 C3.96 0 7.92 0 12 0 C10.6 10.2 10.6 10.2 9 15 C9.33 14.67 9.66 14.34 10 14 C12 15 12 15 13 16 C14.99958364 16.04080783 17.00045254 16.04254356 19 16 C19 18.31 19 20.62 19 23 C17.02 23.33 15.04 23.66 13 24 C13 24.66 13 25.32 13 26 C11.35 26 9.7 26 8 26 C8 26.66 8 27.32 8 28 C7.34 28 6.68 28 6 28 C6 29.32 6 30.64 6 32 C3.03 31.67 0.06 31.34 -3 31 C-3.34179688 27.58203125 -3.34179688 27.58203125 -3.68359375 24.1640625 C-3.89090114 21.95727195 -3.89090114 21.95727195 -5 20 C-3.68 19.34 -2.36 18.68 -1 18 C-3.31 17.34 -5.62 16.68 -8 16 C-8.33 16.66 -8.66 17.32 -9 18 C-9 17.01 -9 16.02 -9 15 C-9.66 14.67 -10.32 14.34 -11 14 C-11 13.34 -11 12.68 -11 12 C-10.34 12 -9.68 12 -9 12 C-9 11.34 -9 10.68 -9 10 C-8.34 9.34 -7.68 8.68 -7 8 C-7.3185177 5.89179203 -7.3185177 5.89179203 -8 4 C-4.535 3.505 -4.535 3.505 -1 3 C-0.67 2.01 -0.34 1.02 0 0 Z " fill="#1C1C1C" transform="translate(138,27)"/>
<path d="M0 0 C2.97 0 5.94 0 9 0 C9 1.32 9 2.64 9 4 C9.46743805 8.65177726 9.46743805 8.65177726 11 13 C5.40848567 14.17031695 0.91864954 14.16198899 -4 11 C-4.33 10.01 -4.66 9.02 -5 8 C-5.66 8 -6.32 8 -7 8 C-7 7.34 -7 6.68 -7 6 C-5.35 6 -3.7 6 -2 6 C-2 5.01 -2 4.02 -2 3 C-3.65 3 -5.3 3 -7 3 C-7 2.67 -7 2.34 -7 2 C-4.69 2 -2.38 2 0 2 C0 1.34 0 0.68 0 0 Z M-21 2 C-18.36 2 -15.72 2 -13 2 C-13.66 3.65 -14.32 5.3 -15 7 C-12.36 7.33 -9.72 7.66 -7 8 C-7.33 10.31 -7.66 12.62 -8 15 C-9.98 15.33 -11.96 15.66 -14 16 C-14.268125 15.195625 -14.53625 14.39125 -14.8125 13.5625 C-15.204375 12.716875 -15.59625 11.87125 -16 11 C-16.99 10.67 -17.98 10.34 -19 10 C-21 9.33333333 -23 8.66666667 -25 8 C-25 7.34 -25 6.68 -25 6 C-24.01 5.34 -23.02 4.68 -22 4 C-21.67 3.34 -21.34 2.68 -21 2 Z M-33 8 C-30.36 8 -27.72 8 -25 8 C-25.33 9.65 -25.66 11.3 -26 13 C-29.375 13.625 -29.375 13.625 -33 14 C-33.66 13.34 -34.32 12.68 -35 12 C-35 11.34 -35 10.68 -35 10 C-34.34 10 -33.68 10 -33 10 C-33 9.34 -33 8.68 -33 8 Z M-53 12 C-52.360625 12.185625 -51.72125 12.37125 -51.0625 12.5625 C-50.0415625 12.7790625 -50.0415625 12.7790625 -49 13 C-48.67 12.67 -48.34 12.34 -48 12 C-47.01 12.33 -46.02 12.66 -45 13 C-45.33 14.65 -45.66 16.3 -46 18 C-46.99 17.67 -47.98 17.34 -49 17 C-50.0209375 16.7834375 -50.0209375 16.7834375 -51.0625 16.5625 C-53 16 -53 16 -55 14 C-54.34 14 -53.68 14 -53 14 C-53 13.34 -53 12.68 -53 12 Z M-25 12 C-24.01 12.33 -23.02 12.66 -22 13 C-21.505 15.475 -21.505 15.475 -21 18 C-21 17.34 -21 16.68 -21 16 C-18.69 16 -16.38 16 -14 16 C-14 16.99 -14 17.98 -14 19 C-13.34 19.66 -12.68 20.32 -12 21 C-27.18 21 -42.36 21 -58 21 C-58 20.67 -58 20.34 -58 20 C-56.35 20 -54.7 20 -53 20 C-53 19.34 -53 18.68 -53 18 C-51.35 18 -49.7 18 -48 18 C-48 18.33 -48 18.66 -48 19 C-43.05 19 -38.1 19 -33 19 C-32.67 18.01 -32.34 17.02 -32 16 C-30.824375 15.7834375 -30.824375 15.7834375 -29.625 15.5625 C-27.03578982 15.12201075 -27.03578982 15.12201075 -25 14 C-25 13.34 -25 12.68 -25 12 Z M-6 12 C-3 13 -3 13 -3 13 Z " fill="#040404" transform="translate(189,67)"/>
<path d="M0 0 C2.31 0 4.62 0 7 0 C6.835 0.94875 6.67 1.8975 6.5 2.875 C5.81458208 7.5763877 5.91416559 12.26003286 6 17 C5.01 17.33 4.02 17.66 3 18 C2.67 18.66 2.34 19.32 2 20 C-3.32911309 21.09930032 -8.57203475 21.13286693 -13.99609375 21.09765625 C-14.82963882 21.0962413 -15.6631839 21.09482635 -16.52198792 21.09336853 C-19.16052986 21.08781168 -21.79898409 21.0752674 -24.4375 21.0625 C-26.23632689 21.05747942 -28.03515513 21.05291749 -29.83398438 21.04882812 C-34.22268958 21.03785643 -38.61132996 21.02062196 -43 21 C-43 20.67 -43 20.34 -43 20 C-42.35450195 19.97494385 -41.70900391 19.9498877 -41.04394531 19.92407227 C-38.11244106 19.80785567 -35.18123783 19.68524558 -32.25 19.5625 C-31.23421875 19.52318359 -30.2184375 19.48386719 -29.171875 19.44335938 C-28.1921875 19.40146484 -27.2125 19.35957031 -26.203125 19.31640625 C-24.85202637 19.26141968 -24.85202637 19.26141968 -23.47363281 19.20532227 C-21.20403661 19.01693593 -19.18437113 18.62633499 -17 18 C-17 17.34 -17 16.68 -17 16 C-16.01 15.34 -15.02 14.68 -14 14 C-15.15173355 11.53199953 -16.04783565 9.95216435 -18 8 C-17.625 4.875 -17.625 4.875 -17 2 C-15.35 2 -13.7 2 -12 2 C-12 3.65 -12 5.3 -12 7 C-11.67 6.67 -11.34 6.34 -11 6 C-9.68 6 -8.36 6 -7 6 C-7 5.34 -7 4.68 -7 4 C-5.68 4.33 -4.36 4.66 -3 5 C-2.67 4.01 -2.34 3.02 -2 2 C-1.34 2 -0.68 2 0 2 C0 1.34 0 0.68 0 0 Z " fill="#5C5C5C" transform="translate(43,67)"/>
<path d="M0 0 C19.47 0 38.94 0 59 0 C59 1.98 59 3.96 59 6 C39.53 6 20.06 6 0 6 C-0.66 4.68 -1.32 3.36 -2 2 C-1.34 2 -0.68 2 0 2 C0 1.34 0 0.68 0 0 Z " fill="#7B7B7B" transform="translate(166,129)"/>
<path d="M0 0 C0 3.96 0 7.92 0 12 C-1.32 12.33 -2.64 12.66 -4 13 C-2.68 13.33 -1.36 13.66 0 14 C0 16.64 0 19.28 0 22 C-0.99 22 -1.98 22 -3 22 C-2.34 25.3 -1.68 28.6 -1 32 C-8.26 32 -15.52 32 -23 32 C-23 31.67 -23 31.34 -23 31 C-19.37 30.67 -15.74 30.34 -12 30 C-12.43760646 26.42621393 -12.97574548 23.08185901 -14 19.625 C-14.98255156 16.06325061 -15.43131217 12.74778694 -15.78125 9.0859375 C-16.0329497 6.68580107 -16.48453022 4.3564333 -17 2 C-17 1.67 -17 1.34 -17 1 C-11.27065855 0.00359279 -5.81689987 -0.07968356 0 0 Z " fill="#7B7B7B" transform="translate(58,27)"/>
<path d="M0 0 C3.63 0 7.26 0 11 0 C10.67 0.66 10.34 1.32 10 2 C10 2.99 10 3.98 10 5 C10 13.66666667 10 22.33333333 10 31 C6.17495382 31.83716928 3.092126 31.98589318 -0.8125 31.5625 C-1.78832031 31.46066406 -2.76414062 31.35882813 -3.76953125 31.25390625 C-4.50558594 31.17011719 -5.24164063 31.08632813 -6 31 C-6.33 28.69 -6.66 26.38 -7 24 C-6.01 24 -5.02 24 -4 24 C-4 23.01 -4 22.02 -4 21 C-4.99 20.67 -5.98 20.34 -7 20 C-7 19.34 -7 18.68 -7 18 C-5.35 17.34 -3.7 16.68 -2 16 C-2 15.34 -2 14.68 -2 14 C-1.01 13.34 -0.02 12.68 1 12 C0.43637698 9.95163118 0.43637698 9.95163118 -1 8 C-4.05908413 7.18415432 -4.05908413 7.18415432 -7 7 C-7 6.67 -7 6.34 -7 6 C-5.02 6 -3.04 6 -1 6 C-0.67 4.02 -0.34 2.04 0 0 Z M-7 8 C-5.02 8 -3.04 8 -1 8 C-1.33 8.66 -1.66 9.32 -2 10 C-3.65 9.67 -5.3 9.34 -7 9 C-7 8.67 -7 8.34 -7 8 Z " fill="#202020" transform="translate(85,27)"/>
<path d="M0 0 C5.61 0 11.22 0 17 0 C16.0608141 4.62368445 15.10564491 8.94479382 13.3125 13.3125 C11.97080287 17.08203002 11.98200404 17.49752439 13 21 C12.625 23.4375 12.625 23.4375 12 26 C11.66243406 27.66581455 11.32851346 29.3323766 11 31 C9.06403108 31.22211116 7.12610672 31.42722992 5.1875 31.625 C3.56908203 31.79902344 3.56908203 31.79902344 1.91796875 31.9765625 C-1 32 -1 32 -4 30 C-5.125 26.5625 -5.125 26.5625 -6 23 C-6.33 22.01 -6.66 21.02 -7 20 C-6.525625 19.113125 -6.05125 18.22625 -5.5625 17.3125 C-3.57978778 13.10915009 -3.69299596 10.60506061 -4 6 C-4.33 5.34 -4.66 4.68 -5 4 C-3.68 4 -2.36 4 -1 4 C-0.67 2.68 -0.34 1.36 0 0 Z " fill="#020202" transform="translate(110,27)"/>
<path d="M0 0 C0.88300781 0.00902344 1.76601562 0.01804687 2.67578125 0.02734375 C3.67158203 0.04474609 3.67158203 0.04474609 4.6875 0.0625 C4.336875 0.784375 3.98625 1.50625 3.625 2.25 C2.55072969 5.47281092 2.89636118 6.81883085 3.6875 10.0625 C3.72522913 12.0621441 3.73399906 14.06304061 3.6875 16.0625 C2.3675 16.0625 1.0475 16.0625 -0.3125 16.0625 C0.0175 17.0525 0.3475 18.0425 0.6875 19.0625 C2.70258358 19.79573796 2.70258358 19.79573796 4.6875 20.0625 C4.6875 20.7225 4.6875 21.3825 4.6875 22.0625 C3.6975 22.0625 2.7075 22.0625 1.6875 22.0625 C2.22730347 25.45555036 2.85300811 28.72453244 3.6875 32.0625 C-0.9325 32.0625 -5.5525 32.0625 -10.3125 32.0625 C-10.3125 21.8325 -10.3125 11.6025 -10.3125 1.0625 C-6.54389506 0.30877901 -3.74581415 -0.04994419 0 0 Z " fill="#666666" transform="translate(70.3125,26.9375)"/>
<path d="M0 0 C0.78375 0.00451172 1.5675 0.00902344 2.375 0.01367188 C4.29170014 0.02535907 6.20836048 0.04329092 8.125 0.0625 C7.80789062 0.97386719 7.49078125 1.88523437 7.1640625 2.82421875 C5.99659802 6.46267009 5.125 10.21265888 5.125 14.0625 C2.815 14.0625 0.505 14.0625 -1.875 14.0625 C-1.875 15.3825 -1.875 16.7025 -1.875 18.0625 C1.425 18.3925 4.725 18.7225 8.125 19.0625 C8.125 19.3925 8.125 19.7225 8.125 20.0625 C-0.455 20.0625 -9.035 20.0625 -17.875 20.0625 C-17.875 17.0925 -17.875 14.1225 -17.875 11.0625 C-16.885 10.4025 -15.895 9.7425 -14.875 9.0625 C-15.865 8.4025 -16.855 7.7425 -17.875 7.0625 C-17.875 6.4025 -17.875 5.7425 -17.875 5.0625 C-16.885 4.4025 -15.895 3.7425 -14.875 3.0625 C-14.875 2.4025 -14.875 1.7425 -14.875 1.0625 C-9.85891475 0.0448597 -5.08891694 -0.05606434 0 0 Z M-6.875 4.0625 C-6.545 4.7225 -6.215 5.3825 -5.875 6.0625 C-4.885 5.4025 -3.895 4.7425 -2.875 4.0625 C-4.195 4.0625 -5.515 4.0625 -6.875 4.0625 Z " fill="#808080" transform="translate(118.875,66.9375)"/>
<path d="M0 0 C3.3 0 6.6 0 10 0 C9.690625 1.670625 9.690625 1.670625 9.375 3.375 C9.25125 4.57125 9.1275 5.7675 9 7 C9.66 7.66 10.32 8.32 11 9 C11.625 11.625 11.625 11.625 12 14 C10.68 14 9.36 14 8 14 C7.86722656 14.66386719 7.73445313 15.32773437 7.59765625 16.01171875 C6 24 6 24 5.43359375 26.76953125 C4.96819606 28.78490033 4.96819606 28.78490033 5 30 C8.3 30.33 11.6 30.66 15 31 C15 31.33 15 31.66 15 32 C12.45826023 32.02716824 9.91681585 32.04691969 7.375 32.0625 C6.30572266 32.07506836 6.30572266 32.07506836 5.21484375 32.08789062 C1.02655562 32.10710296 -2.8728462 31.8267327 -7 31 C-5.68 30.01 -4.36 29.02 -3 28 C-3.226875 27.4225 -3.45375 26.845 -3.6875 26.25 C-4 24 -4 24 -2.5625 21.75 C-2.046875 21.1725 -1.53125 20.595 -1 20 C-2.98 19.67 -4.96 19.34 -7 19 C-6.34 18.67 -5.68 18.34 -5 18 C-5 17.34 -5 16.68 -5 16 C-3.68 16 -2.36 16 -1 16 C-1 14.02 -1 12.04 -1 10 C-2.32 9.67 -3.64 9.34 -5 9 C-5.33 7.68 -5.66 6.36 -6 5 C-4 4 -2 3 0 2 C0 1.34 0 0.68 0 0 Z M3 8 C3 8.33 3 8.66 3 9 C5.97 9.495 5.97 9.495 9 10 C9 9.34 9 8.68 9 8 C7.02 8 5.04 8 3 8 Z M-7 20 C-4 21 -4 21 -4 21 Z " fill="#535353" transform="translate(75,27)"/>
<path d="M0 0 C10.23 0 20.46 0 31 0 C31.495 2.475 31.495 2.475 32 5 C29.05868109 5.98043964 27.17498335 6.11621202 24.11328125 6.09765625 C23.17548828 6.09443359 22.23769531 6.09121094 21.27148438 6.08789062 C20.29501953 6.07951172 19.31855469 6.07113281 18.3125 6.0625 C17.32443359 6.05798828 16.33636719 6.05347656 15.31835938 6.04882812 C12.87884526 6.03704303 10.43945311 6.02059011 8 6 C8 7.32 8 8.64 8 10 C5.36 10 2.72 10 0 10 C0 10.66 0 11.32 0 12 C-0.495 11.855625 -0.99 11.71125 -1.5 11.5625 C-4.97752922 10.78005593 -8.45955123 10.41305236 -12 10 C-12 10.66 -12 11.32 -12 12 C-13.65 12 -15.3 12 -17 12 C-16.979375 11.21625 -16.95875 10.4325 -16.9375 9.625 C-16.81315937 7.01885039 -16.81315937 7.01885039 -18 5 C-16.02087544 4.83283412 -14.04169915 4.66628044 -12.0625 4.5 C-10.40927734 4.36078125 -10.40927734 4.36078125 -8.72265625 4.21875 C-6 4 -6 4 -5 4 C-4.67 3.34 -4.34 2.68 -4 2 C-2.68 2 -1.36 2 0 2 C0 1.34 0 0.68 0 0 Z " fill="#959595" transform="translate(83,117)"/>
<path d="M0 0 C3.3 0 6.6 0 10 0 C9.83628906 0.89847656 9.67257813 1.79695313 9.50390625 2.72265625 C8.71151239 8.26941327 8.8943717 13.84740921 8.9375 19.4375 C8.94201172 20.55060547 8.94652344 21.66371094 8.95117188 22.81054688 C8.96288793 25.54038796 8.98082109 28.27020114 9 31 C5.04 30.67 1.08 30.34 -3 30 C-2.67 29.01 -2.34 28.02 -2 27 C-2.61875 26.62875 -3.2375 26.2575 -3.875 25.875 C-6.56630293 23.50032094 -7.05573171 21.41389305 -8 18 C-8.33 17.34 -8.66 16.68 -9 16 C-6.69 16 -4.38 16 -2 16 C-2 15.34 -2 14.68 -2 14 C-1.01 13.34 -0.02 12.68 1 12 C0.67 10.68 0.34 9.36 0 8 C-2.31 7.67 -4.62 7.34 -7 7 C-7 6.67 -7 6.34 -7 6 C-5.02 6 -3.04 6 -1 6 C-0.67 4.02 -0.34 2.04 0 0 Z M-7 8 C-5.02 8 -3.04 8 -1 8 C-1.33 8.66 -1.66 9.32 -2 10 C-3.65 9.67 -5.3 9.34 -7 9 C-7 8.67 -7 8.34 -7 8 Z M-6 26 C-5.34 26 -4.68 26 -4 26 C-4.33 26.66 -4.66 27.32 -5 28 C-5.33 27.34 -5.66 26.68 -6 26 Z " fill="#282828" transform="translate(38,27)"/>
<path d="M0 0 C18.15 0 36.3 0 55 0 C54.34 2.31 53.68 4.62 53 7 C39.47 7.33 25.94 7.66 12 8 C12 7.01 12 6.02 12 5 C5.565 5.495 5.565 5.495 -1 6 C-0.67 4.02 -0.34 2.04 0 0 Z M-59 6 C-39.86 6 -20.72 6 -1 6 C-1 6.33 -1 6.66 -1 7 C-20.14 7 -39.28 7 -59 7 C-59 6.67 -59 6.34 -59 6 Z " fill="#010101" transform="translate(59,109)"/>
<path d="M0 0 C2.64 0.33 5.28 0.66 8 1 C8 5.95 8 10.9 8 16 C-0.58 16 -9.16 16 -18 16 C-18 12.37 -18 8.74 -18 5 C-16.205625 4.87625 -14.41125 4.7525 -12.5625 4.625 C-9.58605332 4.4683265 -9.58605332 4.4683265 -7 4 C-6.67 3.34 -6.34 2.68 -6 2 C-4.02 2 -2.04 2 0 2 C0 1.34 0 0.68 0 0 Z " fill="#797979" transform="translate(130,43)"/>
<path d="M0 0 C12.87 0 25.74 0 39 0 C38.67 1.65 38.34 3.3 38 5 C38.36856864 7.23167185 38.36856864 7.23167185 39 9 C36.69 9 34.38 9 32 9 C32 9.66 32 10.32 32 11 C24.74 11 17.48 11 10 11 C10.33 10.01 10.66 9.02 11 8 C14.465 7.505 14.465 7.505 18 7 C17.34 5.02 16.68 3.04 16 1 C16 2.32 16 3.64 16 5 C12.04 5 8.08 5 4 5 C3.67 4.34 3.34 3.68 3 3 C3.33 2.34 3.66 1.68 4 1 C2.68 0.67 1.36 0.34 0 0 Z M26 1 C26.33 1.66 26.66 2.32 27 3 C30.465 2.505 30.465 2.505 34 2 C34 1.67 34 1.34 34 1 C31.36 1 28.72 1 26 1 Z M22 3 C22.33 3.66 22.66 4.32 23 5 C23.99 4.34 24.98 3.68 26 3 C24.68 3 23.36 3 22 3 Z " fill="#B2B2B2" transform="translate(127,116)"/>
<path d="M0 0 C2.64 0 5.28 0 8 0 C8 0.33 8 0.66 8 1 C5.36 1.33 2.72 1.66 0 2 C0 1.34 0 0.68 0 0 Z M-4 2 C-2.68 2.33 -1.36 2.66 0 3 C-1.32 3.33 -2.64 3.66 -4 4 C-4 3.34 -4 2.68 -4 2 Z M-10 0 C-8.02 0 -6.04 0 -4 0 C-4.99 1.485 -4.99 1.485 -6 3 C-3.60236815 5.39763185 -2.66726502 5.34280586 0.625 5.625 C1.44226563 5.69976562 2.25953125 5.77453125 3.1015625 5.8515625 C3.72804687 5.90054688 4.35453125 5.94953125 5 6 C5 6.33 5 6.66 5 7 C-5.395 7.495 -5.395 7.495 -16 8 C-16 7.34 -16 6.68 -16 6 C-19.63 6 -23.26 6 -27 6 C-27 5.34 -27 4.68 -27 4 C-25.41058594 3.90912109 -25.41058594 3.90912109 -23.7890625 3.81640625 C-22.40102779 3.73199873 -21.01300768 3.64735083 -19.625 3.5625 C-18.92632812 3.52318359 -18.22765625 3.48386719 -17.5078125 3.44335938 C-13.62639508 3.25719866 -13.62639508 3.25719866 -10 2 C-10 1.34 -10 0.68 -10 0 Z M-37 4 C-34.03 4 -31.06 4 -28 4 C-27.505 5.485 -27.505 5.485 -27 7 C-27.66 7.66 -28.32 8.32 -29 9 C-29 9.66 -29 10.32 -29 11 C-31.31 11.66 -33.62 12.32 -36 13 C-36 12.34 -36 11.68 -36 11 C-36.97195312 11.165 -37.94390625 11.33 -38.9453125 11.5 C-43.26815692 12.11848253 -47.51735828 12.07513175 -51.875 12 C-54.58936177 11.95460933 -57.28438817 11.95246194 -60 12 C-60.33 12.33 -60.66 12.66 -61 13 C-63.30583761 13.28859409 -65.62074066 13.50639292 -67.9375 13.6875 C-69.20464844 13.79449219 -70.47179687 13.90148437 -71.77734375 14.01171875 C-75 14 -75 14 -77 12 C-76.34 12 -75.68 12 -75 12 C-75 11.34 -75 10.68 -75 10 C-72 11 -72 11 -70 12 C-70 11.34 -70 10.68 -70 10 C-66.535 9.505 -66.535 9.505 -63 9 C-62.67 8.01 -62.34 7.02 -62 6 C-55.4 6 -48.8 6 -42 6 C-42.66 6.99 -43.32 7.98 -44 9 C-40.535 8.505 -40.535 8.505 -37 8 C-37 6.68 -37 5.36 -37 4 Z M-18 8 C-16 9 -16 9 -16 9 Z M-82 14 C-79.69 14 -77.38 14 -75 14 C-75 14.33 -75 14.66 -75 15 C-77.31 15 -79.62 15 -82 15 C-82 14.67 -82 14.34 -82 14 Z M-72 14 C-70 15 -70 15 -70 15 Z " fill="#020202" transform="translate(153,117)"/>
<path d="M0 0 C0.66 0 1.32 0 2 0 C2.99 1.98 3.98 3.96 5 6 C5 5.34 5 4.68 5 4 C7.64 4.33 10.28 4.66 13 5 C13 9.95 13 14.9 13 20 C6.73 19.67 0.46 19.34 -6 19 C-6 14.05 -6 9.1 -6 4 C-4.35 4 -2.7 4 -1 4 C-0.67 2.68 -0.34 1.36 0 0 Z " fill="#404040" transform="translate(180,39)"/>
<path d="M0 0 C0.99 0.33 1.98 0.66 3 1 C3 4.3 3 7.6 3 11 C-1.52235333 11.87652965 -5.80661623 12.12874756 -10.41015625 12.1328125 C-11.10008163 12.13376923 -11.79000702 12.13472595 -12.50083923 12.13571167 C-13.9505116 12.13638839 -15.40018708 12.13456975 -16.84985352 12.13037109 C-19.0594771 12.12500734 -21.26889821 12.13033754 -23.47851562 12.13671875 C-24.89322961 12.13605804 -26.30794347 12.13477702 -27.72265625 12.1328125 C-28.99890869 12.13168457 -30.27516113 12.13055664 -31.59008789 12.12939453 C-34.53291025 12.01772446 -37.14518074 11.68635621 -40 11 C-40 10.01 -40 9.02 -40 8 C-35.59292743 5.35575646 -32.36969499 6.31917759 -27.6484375 7.41796875 C-23.78635148 8.26671627 -19.93332457 8.61935569 -16 9 C-16.99 8.01 -17.98 7.02 -19 6 C-15.7 5.67 -12.4 5.34 -9 5 C-8.67 4.01 -8.34 3.02 -8 2 C-6.865625 1.855625 -5.73125 1.71125 -4.5625 1.5625 C-1.19222799 1.38828522 -1.19222799 1.38828522 0 0 Z M-30 9 C-26 10 -26 10 -26 10 Z M-30 4 C-28.02 4.495 -28.02 4.495 -26 5 C-26 5.66 -26 6.32 -26 7 C-27.65 7 -29.3 7 -31 7 C-30.67 6.01 -30.34 5.02 -30 4 Z " fill="#656565" transform="translate(97,76)"/>
<path d="M0 0 C19.47 0 38.94 0 59 0 C59 0.99 59 1.98 59 3 C37.22 3.33 15.44 3.66 -7 4 C-7 3.34 -7 2.68 -7 2 C-4.69 2 -2.38 2 0 2 C0 1.34 0 0.68 0 0 Z M-29 4 C-21.74 4 -14.48 4 -7 4 C-7 4.33 -7 4.66 -7 5 C-14.26 5 -21.52 5 -29 5 C-29 4.67 -29 4.34 -29 4 Z M-2 4 C0 5 0 5 0 5 Z " fill="#464646" transform="translate(166,123)"/>
<path d="M0 0 C0 2.64 0 5.28 0 8 C-1.32 8 -2.64 8 -4 8 C-4 8.66 -4 9.32 -4 10 C-6.31 10 -8.62 10 -11 10 C-11.33 8.68 -11.66 7.36 -12 6 C-13.01540112 10.10223585 -13.01540112 10.10223585 -12 14 C-15.96 14 -19.92 14 -24 14 C-24 14.66 -24 15.32 -24 16 C-25.32 15.67 -26.64 15.34 -28 15 C-28 13.68 -28 12.36 -28 11 C-26.68 10.67 -25.36 10.34 -24 10 C-24 9.34 -24 8.68 -24 8 C-23.34 7.34 -22.68 6.68 -22 6 C-21.608125 5.46375 -21.21625 4.9275 -20.8125 4.375 C-18.03209949 2.26573065 -15.38431861 2.87465487 -12 3 C-11.67 2.67 -11.34 2.34 -11 2 C-13.64 2 -16.28 2 -19 2 C-19 1.67 -19 1.34 -19 1 C-12.61773055 0.17648136 -6.43255401 -0.12086218 0 0 Z " fill="#787878" transform="translate(100,67)"/>
<path d="M0 0 C7.92 0 15.84 0 24 0 C23.34 1.32 22.68 2.64 22 4 C21.67 4.99 21.34 5.98 21 7 C17.37 7.33 13.74 7.66 10 8 C10 8.66 10 9.32 10 10 C9.01 10.495 9.01 10.495 8 11 C8.33 12.65 8.66 14.3 9 16 C6.42786866 17.61949011 5.32330841 18.04408751 2.25 17.625 C1.5075 17.41875 0.765 17.2125 0 17 C0.99 15.515 0.99 15.515 2 14 C1.34 14 0.68 14 0 14 C0 13.34 0 12.68 0 12 C0.99 11.34 1.98 10.68 3 10 C2.01 10 1.02 10 0 10 C0 9.34 0 8.68 0 8 C0.99 7.34 1.98 6.68 3 6 C2.690625 5.38125 2.38125 4.7625 2.0625 4.125 C1.375 2.75 0.6875 1.375 0 0 Z M-2 2 C-1.34 2 -0.68 2 0 2 C-0.33 2.66 -0.66 3.32 -1 4 C-1.33 3.34 -1.66 2.68 -2 2 Z M-2 10 C-1.34 10 -0.68 10 0 10 C-0.33 10.66 -0.66 11.32 -1 12 C-1.33 11.34 -1.66 10.68 -2 10 Z M-5 12 C-2 13 -2 13 0 14 C-0.33 14.66 -0.66 15.32 -1 16 C-3.31 15.67 -5.62 15.34 -8 15 C-7.01 14.67 -6.02 14.34 -5 14 C-5 13.34 -5 12.68 -5 12 Z M-8 16 C-5 17 -5 17 -5 17 Z M1 18 C5 19 5 19 5 19 Z " fill="#020202" transform="translate(66,67)"/>
<path d="M0 0 C12.54 0 25.08 0 38 0 C38 2.31 38 4.62 38 7 C37.0212793 7.01981934 36.04255859 7.03963867 35.03417969 7.06005859 C31.39606403 7.13624624 27.75834147 7.22494295 24.12060547 7.31738281 C22.54744235 7.35561829 20.97419342 7.39048066 19.40087891 7.421875 C17.13673277 7.46764422 14.87317453 7.52561761 12.609375 7.5859375 C11.90818542 7.59748871 11.20699585 7.60903992 10.48455811 7.62094116 C6.8466503 7.73039906 4.1009622 8.01844344 1 10 C0.01 9.34 -0.98 8.68 -2 8 C-2 7.34 -2 6.68 -2 6 C-4.97 6 -7.94 6 -11 6 C-11.33 5.34 -11.66 4.68 -12 4 C-10.95199219 3.90912109 -10.95199219 3.90912109 -9.8828125 3.81640625 C-8.97273438 3.73261719 -8.06265625 3.64882812 -7.125 3.5625 C-6.22007813 3.48128906 -5.31515625 3.40007812 -4.3828125 3.31640625 C-1.98889139 3.13010715 -1.98889139 3.13010715 0 2 C0 1.34 0 0.68 0 0 Z M-13 6 C-11 7 -11 7 -11 7 Z M-2 10 C0 11 0 11 0 11 Z " fill="#000000" transform="translate(126,109)"/>
<path d="M0 0 C20.79 0 41.58 0 63 0 C61.02 0.99 61.02 0.99 59 2 C58.67 2.33 58.34 2.66 58 3 C56.18944975 3.09376053 54.37522799 3.1174411 52.56225586 3.11352539 C50.82056374 3.11341209 50.82056374 3.11341209 49.04368591 3.11329651 C47.14840904 3.10555458 47.14840904 3.10555458 45.21484375 3.09765625 C43.92888809 3.0962413 42.64293243 3.09482635 41.31800842 3.09336853 C37.89356557 3.08954418 34.46916491 3.07971462 31.04473877 3.06866455 C27.55261811 3.05844864 24.06049066 3.05387053 20.56835938 3.04882812 C13.71222222 3.03809227 6.85611313 3.02101684 0 3 C0 2.01 0 1.02 0 0 Z " fill="#515151" transform="translate(0,131)"/>
<path d="M0 0 C1.34913483 -0.02719116 1.34913483 -0.02719116 2.7255249 -0.05493164 C3.52491486 -0.07616089 4.32430481 -0.09739014 5.1479187 -0.1192627 C7.11956787 0.08374023 7.11956787 0.08374023 9.11956787 2.08374023 C9.11956787 2.74374023 9.11956787 3.40374023 9.11956787 4.08374023 C8.36031006 4.13272461 7.60105225 4.18170898 6.81878662 4.23217773 C5.32798584 4.34432617 5.32798584 4.34432617 3.80706787 4.45874023 C2.32786865 4.5631543 2.32786865 4.5631543 0.81878662 4.66967773 C-2.09571646 4.92239496 -2.09571646 4.92239496 -4.88043213 7.08374023 C-7.85963442 7.18651613 -10.73281369 7.17453751 -13.70465088 7.06030273 C-14.56605179 7.03527679 -15.4274527 7.01025085 -16.31495667 6.98446655 C-19.0663503 6.90229165 -21.81702341 6.80569279 -24.56793213 6.70874023 C-26.43313707 6.65049808 -28.29837158 6.59319485 -30.16363525 6.53686523 C-34.73631532 6.3967166 -39.30840149 6.24363017 -43.88043213 6.08374023 C-43.88043213 5.09374023 -43.88043213 4.10374023 -43.88043213 3.08374023 C-46.52043213 2.75374023 -49.16043213 2.42374023 -51.88043213 2.08374023 C-51.88043213 1.75374023 -51.88043213 1.42374023 -51.88043213 1.08374023 C-45.08521502 0.93985758 -38.28996481 0.79762234 -31.49468994 0.65649414 C-29.1864139 0.60836468 -26.87814549 0.55986791 -24.56988525 0.51098633 C-21.23852479 0.44050418 -17.90713848 0.37137402 -14.57574463 0.30249023 C-13.04544113 0.26967957 -13.04544113 0.26967957 -11.48422241 0.23620605 C-9.54575792 0.19661507 -7.60720359 0.16114621 -5.6685791 0.13037109 C-3.77881735 0.09876544 -1.88922783 0.05492384 0 0 Z " fill="#D4D4D4" transform="translate(116.88043212890625,108.916259765625)"/>
<path d="M0 0 C0 5.28 0 10.56 0 16 C-2.31 16 -4.62 16 -7 16 C-7 16.66 -7 17.32 -7 18 C-9 17 -9 17 -10 16 C-11.66617115 15.95936168 -13.33388095 15.957279 -15 16 C-15.06058594 15.40832031 -15.12117187 14.81664062 -15.18359375 14.20703125 C-15.62043878 10.08724657 -16.11356903 6.05225588 -17 2 C-17 1.67 -17 1.34 -17 1 C-15.6674398 0.82726071 -14.33388058 0.66222872 -13 0.5 C-12.2575 0.4071875 -11.515 0.314375 -10.75 0.21875 C-7.17721041 -0.06544917 -3.58407514 0 0 0 Z " fill="#8A8A8A" transform="translate(158,27)"/>
<path d="M0 0 C14.19 0 28.38 0 43 0 C43 0.66 43 1.32 43 2 C43.66 2.66 44.32 3.32 45 4 C45 4.66 45 5.32 45 6 C41.625 6.125 41.625 6.125 38 6 C37.34 5.34 36.68 4.68 36 4 C36 4.66 36 5.32 36 6 C34.68 6 33.36 6 32 6 C32 6.66 32 7.32 32 8 C31.34 7.67 30.68 7.34 30 7 C29.375 4.9375 29.375 4.9375 29 3 C26.03 2.505 26.03 2.505 23 2 C22.67 2.66 22.34 3.32 22 4 C14.74 4 7.48 4 0 4 C0 2.68 0 1.36 0 0 Z " fill="#696969" transform="translate(0,67)"/>
<path d="M0 0 C3.63 0 7.26 0 11 0 C11 5.28 11 10.56 11 16 C8.36 16 5.72 16 3 16 C3 16.66 3 17.32 3 18 C1.68 17.67 0.36 17.34 -1 17 C-0.67 15.35 -0.34 13.7 0 12 C-0.99 11.67 -1.98 11.34 -3 11 C-2.01 7.37 -1.02 3.74 0 0 Z " fill="#565656" transform="translate(182,27)"/>
<path d="M0 0 C8.91 0 17.82 0 27 0 C27 1.98 27 3.96 27 6 C19.41 6 11.82 6 4 6 C3.34 4.68 2.68 3.36 2 2 C1.34 2 0.68 2 0 2 C0 1.34 0 0.68 0 0 Z " fill="#6C6C6C" transform="translate(198,67)"/>
<path d="M0 0 C2.31 0 4.62 0 7 0 C6.835 0.94875 6.67 1.8975 6.5 2.875 C5.81458208 7.5763877 5.91416559 12.26003286 6 17 C4.1875 17.625 4.1875 17.625 2 18 C1.01 17.34 0.02 16.68 -1 16 C-0.649375 15.4225 -0.29875 14.845 0.0625 14.25 C1.36283174 11.75979645 1.36283174 11.75979645 0 8 C-3.63 8 -7.26 8 -11 8 C-11 7.34 -11 6.68 -11 6 C-9.68 6 -8.36 6 -7 6 C-7 5.34 -7 4.68 -7 4 C-5.68 4.33 -4.36 4.66 -3 5 C-2.67 4.01 -2.34 3.02 -2 2 C-1.34 2 -0.68 2 0 2 C0 1.34 0 0.68 0 0 Z M-17 2 C-15.35 2 -13.7 2 -12 2 C-12 10 -12 10 -13 12 C-14.65 11.01 -16.3 10.02 -18 9 C-17.67 6.69 -17.34 4.38 -17 2 Z M-15 12 C-13 13 -13 13 -13 13 Z M-1 18 C2 19 2 19 2 19 Z " fill="#030303" transform="translate(43,67)"/>
<path d="M0 0 C1.2065625 0.0309375 1.2065625 0.0309375 2.4375 0.0625 C2.1075 0.7225 1.7775 1.3825 1.4375 2.0625 C1.7675 2.7225 2.0975 3.3825 2.4375 4.0625 C31.6425 4.5575 31.6425 4.5575 61.4375 5.0625 C61.4375 5.3925 61.4375 5.7225 61.4375 6.0625 C51.63195993 6.0856935 41.82642642 6.10345082 32.02086449 6.11431217 C27.46751307 6.11952566 22.91418045 6.12659545 18.36083984 6.13793945 C13.96475668 6.14882285 9.56869158 6.1547884 5.17259598 6.15737724 C3.49731792 6.15922166 1.82204083 6.16282334 0.14677048 6.16823006 C-2.20376962 6.17551286 -4.55423555 6.17648789 -6.90478516 6.17602539 C-7.93841187 6.1814183 -7.93841187 6.1814183 -8.99291992 6.18692017 C-12.95262919 6.17851647 -16.67691213 5.82208984 -20.5625 5.0625 C-20.5625 4.7325 -20.5625 4.4025 -20.5625 4.0625 C-15.54937921 2.4277867 -10.86071158 1.69786611 -5.6015625 1.30859375 C-2.91296944 0.98410838 -2.88987318 0.07048471 0 0 Z " fill="#262626" transform="translate(163.5625,129.9375)"/>
<path d="M0 0 C2.97 0 5.94 0 9 0 C8.67 1.32 8.34 2.64 8 4 C8.33 4.66 8.66 5.32 9 6 C8.01 6.495 8.01 6.495 7 7 C7.2475 8.2065625 7.2475 8.2065625 7.5 9.4375 C8 12 8 12 8 13 C7.38511719 13.03738281 6.77023438 13.07476562 6.13671875 13.11328125 C4.92435547 13.21189453 4.92435547 13.21189453 3.6875 13.3125 C2.88699219 13.37050781 2.08648437 13.42851563 1.26171875 13.48828125 C-1.36272334 14.08206694 -2.30820672 14.95780294 -4 17 C-3.67 17.66 -3.34 18.32 -3 19 C-5.97 19 -8.94 19 -12 19 C-11.3125 16.5625 -11.3125 16.5625 -10 14 C-7.375 13.1875 -7.375 13.1875 -5 13 C-4.34 10.03 -3.68 7.06 -3 4 C-2.34 4 -1.68 4 -1 4 C-0.67 2.68 -0.34 1.36 0 0 Z " fill="#020202" transform="translate(127,67)"/>
<path d="M0 0 C0.639375 0.185625 1.27875 0.37125 1.9375 0.5625 C2.9584375 0.7790625 2.9584375 0.7790625 4 1 C4.33 0.67 4.66 0.34 5 0 C5.99 0.33 6.98 0.66 8 1 C7.67 2.65 7.34 4.3 7 6 C6.01 5.67 5.02 5.34 4 5 C2.9790625 4.7834375 2.9790625 4.7834375 1.9375 4.5625 C0 4 0 4 -2 2 C-1.34 2 -0.68 2 0 2 C0 1.34 0 0.68 0 0 Z M28 0 C28.99 0.33 29.98 0.66 31 1 C31 2.65 31 4.3 31 6 C35.95 6.99 35.95 6.99 41 8 C41 8.33 41 8.66 41 9 C25.82 9 10.64 9 -5 9 C-5 8.67 -5 8.34 -5 8 C-3.35 8 -1.7 8 0 8 C0 7.34 0 6.68 0 6 C1.65 6 3.3 6 5 6 C5 6.33 5 6.66 5 7 C9.95 7 14.9 7 20 7 C20.33 6.01 20.66 5.02 21 4 C22.175625 3.7834375 22.175625 3.7834375 23.375 3.5625 C25.96421018 3.12201075 25.96421018 3.12201075 28 2 C28 1.34 28 0.68 28 0 Z " fill="#1A1A1A" transform="translate(136,79)"/>
<path d="M0 0 C2.8125 1.1875 2.8125 1.1875 5 3 C5.3125 5.6875 5.3125 5.6875 5 8 C3.35 8 1.7 8 0 8 C0 9.32 0 10.64 0 12 C0 12.66 0 13.32 0 14 C-0.639375 13.814375 -1.27875 13.62875 -1.9375 13.4375 C-2.9584375 13.2209375 -2.9584375 13.2209375 -4 13 C-4.33 13.33 -4.66 13.66 -5 14 C-7.0625 13.5625 -7.0625 13.5625 -9 13 C-9.1953125 6.9453125 -9.1953125 6.9453125 -9 5 C-8.34 4.34 -7.68 3.68 -7 3 C-7 2.34 -7 1.68 -7 1 C-4.42059083 -0.28970458 -2.87136793 -0.26710399 0 0 Z M-2 2 C-1.34 2.66 -0.68 3.32 0 4 C0 3.34 0 2.68 0 2 C-0.66 2 -1.32 2 -2 2 Z M1 9 C2.98 9.495 2.98 9.495 5 10 C5 10.66 5 11.32 5 12 C3.35 12 1.7 12 0 12 C0.33 11.01 0.66 10.02 1 9 Z " fill="#868686" transform="translate(66,67)"/>
<path d="M0 0 C7.59 0 15.18 0 23 0 C23 1.65 23 3.3 23 5 C18.93751511 5.02909769 14.87505714 5.04683174 10.8125 5.0625 C9.08676758 5.07506836 9.08676758 5.07506836 7.32617188 5.08789062 C6.21435547 5.09111328 5.10253906 5.09433594 3.95703125 5.09765625 C2.93585205 5.10289307 1.91467285 5.10812988 0.86254883 5.11352539 C-1.86901616 5.00519467 -4.34169374 4.61706868 -7 4 C-7 3.67 -7 3.34 -7 3 C-5.02 3 -3.04 3 -1 3 C-0.67 2.01 -0.34 1.02 0 0 Z " fill="#8B8B8B" transform="translate(202,82)"/>
<path d="M0 0 C10.23 0 20.46 0 31 0 C31.495 1.485 31.495 1.485 32 3 C25.73 3.33 19.46 3.66 13 4 C13 3.01 13 2.02 13 1 C11.02 1.66 9.04 2.32 7 3 C7 3.99 7 4.98 7 6 C7 6.33 7 6.66 7 7 C3.8125 7.75 3.8125 7.75 0 8 C-2.9375 6.0625 -2.9375 6.0625 -5 4 C-4.67 3.34 -4.34 2.68 -4 2 C-2.68 2 -1.36 2 0 2 C0 1.34 0 0.68 0 0 Z M-2 8 C0 9 0 9 0 9 Z " fill="#3E3E3E" transform="translate(83,117)"/>
<path d="M0 0 C3 1 3 1 5 2 C6.32860925 2.35169068 7.66158328 2.68770276 9 3 C9.33 4.98 9.66 6.96 10 9 C7.69 9 5.38 9 3 9 C3 9.66 3 10.32 3 11 C1.68 10.67 0.36 10.34 -1 10 C-0.67 8.68 -0.34 7.36 0 6 C-1.15811388 7.05270463 -1.15811388 7.05270463 -2 9 C-3.98 9 -5.96 9 -8 9 C-8 9.66 -8 10.32 -8 11 C-9.32 10.67 -10.64 10.34 -12 10 C-11.01 10 -10.02 10 -9 10 C-9 9.01 -9 8.02 -9 7 C-8.34 6.67 -7.68 6.34 -7 6 C-7.33 4.68 -7.66 3.36 -8 2 C-6.2984375 1.7834375 -6.2984375 1.7834375 -4.5625 1.5625 C-1.19222799 1.38828522 -1.19222799 1.38828522 0 0 Z " fill="#818181" transform="translate(165,74)"/>
<path d="M0 0 C0.16955795 1.72888555 0.33551514 3.45812443 0.5 5.1875 C0.5928125 6.15042969 0.685625 7.11335938 0.78125 8.10546875 C0.98124844 10.75187667 1.03879183 13.34760865 1 16 C-0.65 16 -2.3 16 -4 16 C-4 16.66 -4 17.32 -4 18 C-5.32 17.67 -6.64 17.34 -8 17 C-8.05389087 15.04196493 -8.09274217 13.08351091 -8.125 11.125 C-8.14820313 10.03445312 -8.17140625 8.94390625 -8.1953125 7.8203125 C-8 5 -8 5 -6 3 C-6 2.34 -6 1.68 -6 1 C-4 0 -4 0 0 0 Z " fill="#808080" transform="translate(54,67)"/>
<path d="M0 0 C1.26108078 0.0001133 1.26108078 0.0001133 2.54763794 0.00022888 C3.91020218 0.00797081 3.91020218 0.00797081 5.30029297 0.01586914 C6.22969696 0.01728409 7.15910095 0.01869904 8.1166687 0.02015686 C11.09197171 0.02576486 14.06720011 0.03831871 17.04248047 0.05102539 C19.0568023 0.05603936 21.07112531 0.06060245 23.08544922 0.06469727 C28.02948849 0.07573689 32.97347182 0.0930069 37.91748047 0.11352539 C37.91748047 0.44352539 37.91748047 0.77352539 37.91748047 1.11352539 C27.35748047 1.11352539 16.79748047 1.11352539 5.91748047 1.11352539 C5.91748047 3.09352539 5.91748047 5.07352539 5.91748047 7.11352539 C2.61748047 7.11352539 -0.68251953 7.11352539 -4.08251953 7.11352539 C-4.08251953 6.12352539 -4.08251953 5.13352539 -4.08251953 4.11352539 C-4.74251953 3.78352539 -5.40251953 3.45352539 -6.08251953 3.11352539 C-6.08251953 3.77352539 -6.08251953 4.43352539 -6.08251953 5.11352539 C-8.72251953 5.11352539 -11.36251953 5.11352539 -14.08251953 5.11352539 C-14.41251953 4.12352539 -14.74251953 3.13352539 -15.08251953 2.11352539 C-14.14279297 2.02264648 -14.14279297 2.02264648 -13.18408203 1.92993164 C-11.95818359 1.80424805 -11.95818359 1.80424805 -10.70751953 1.67602539 C-9.89541016 1.59481445 -9.08330078 1.51360352 -8.24658203 1.42993164 C-5.22316475 0.98787966 -3.15550873 -0.00944763 0 0 Z " fill="#B7B7B7" transform="translate(77.08251953125,115.886474609375)"/>
<path d="M0 0 C0.78375 0.00451172 1.5675 0.00902344 2.375 0.01367188 C4.29170014 0.02535907 6.20836048 0.04329092 8.125 0.0625 C7.795 1.3825 7.465 2.7025 7.125 4.0625 C4.155 4.0625 1.185 4.0625 -1.875 4.0625 C-1.875 4.7225 -1.875 5.3825 -1.875 6.0625 C-2.514375 5.876875 -3.15375 5.69125 -3.8125 5.5 C-4.8334375 5.2834375 -4.8334375 5.2834375 -5.875 5.0625 C-6.205 5.3925 -6.535 5.7225 -6.875 6.0625 C-8.72787502 6.13476502 -10.58333878 6.1463122 -12.4375 6.125 C-13.44941406 6.11597656 -14.46132812 6.10695313 -15.50390625 6.09765625 C-16.28636719 6.08605469 -17.06882812 6.07445313 -17.875 6.0625 C-17.38 5.60875 -16.885 5.155 -16.375 4.6875 C-14.64890663 3.18614481 -14.64890663 3.18614481 -14.875 1.0625 C-9.85891475 0.0448597 -5.08891694 -0.05606434 0 0 Z " fill="#737373" transform="translate(118.875,66.9375)"/>
<path d="M0 0 C3.96 0 7.92 0 12 0 C12 0.66 12 1.32 12 2 C11.01 2.495 11.01 2.495 10 3 C10 3.99 10 4.98 10 6 C8.35 6 6.7 6 5 6 C5 6.66 5 7.32 5 8 C1.04 8 -2.92 8 -7 8 C-7 6.35 -7 4.7 -7 3 C-5.5459375 2.814375 -5.5459375 2.814375 -4.0625 2.625 C-2.5465625 2.315625 -2.5465625 2.315625 -1 2 C-0.67 1.34 -0.34 0.68 0 0 Z " fill="#525252" transform="translate(177,67)"/>
<path d="M0 0 C0.89203125 0.01804687 1.7840625 0.03609375 2.703125 0.0546875 C3.71632812 0.08949219 3.71632812 0.08949219 4.75 0.125 C3.9375 2.5625 3.9375 2.5625 2.75 5.125 C1.76 5.455 0.77 5.785 -0.25 6.125 C-0.25 6.785 -0.25 7.445 -0.25 8.125 C-1.9 8.125 -3.55 8.125 -5.25 8.125 C-5.25 8.785 -5.25 9.445 -5.25 10.125 C-8.55 10.125 -11.85 10.125 -15.25 10.125 C-15.25 9.135 -15.25 8.145 -15.25 7.125 C-13.19921875 6.89713542 -11.1484375 6.66927083 -9.09765625 6.44140625 C-7.23859771 6.30613386 -7.23859771 6.30613386 -6.25 5.125 C-7.24 4.135 -8.23 3.145 -9.25 2.125 C-6.03817851 0.21891902 -3.71117397 -0.09766247 0 0 Z " fill="#6F6F6F" transform="translate(141.25,66.875)"/>
<path d="M0 0 C0 0.99 0 1.98 0 3 C-1.65 3 -3.3 3 -5 3 C-5 3.66 -5 4.32 -5 5 C-9.455 5.495 -9.455 5.495 -14 6 C-14 5.34 -14 4.68 -14 4 C-14.763125 3.896875 -15.52625 3.79375 -16.3125 3.6875 C-19.17059424 2.95635961 -20.15742885 2.23048087 -22 0 C-14.56588188 -1.52494731 -7.43848839 -1.26612568 0 0 Z " fill="#3C3C3C" transform="translate(141,82)"/>
<path d="M0 0 C0.625 2.5625 0.625 2.5625 1 5 C-0.32 5.33 -1.64 5.66 -3 6 C-3 6.66 -3 7.32 -3 8 C-4.32 8 -5.64 8 -7 8 C-6.75 4.625 -6.75 4.625 -6 1 C-3.56217182 -0.88735085 -2.80901846 -1.40450923 0 0 Z M-29 8 C-25.41673499 7.94185915 -21.83359162 7.90635643 -18.25 7.875 C-17.23421875 7.85824219 -16.2184375 7.84148437 -15.171875 7.82421875 C-14.1921875 7.81777344 -13.2125 7.81132813 -12.203125 7.8046875 C-11.30239258 7.79421387 -10.40166016 7.78374023 -9.47363281 7.77294922 C-7 8 -7 8 -3 10 C-11.58 10 -20.16 10 -29 10 C-29 9.34 -29 8.68 -29 8 Z " fill="#7A7A7A" transform="translate(29,77)"/>
<path d="M0 0 C2.97 0.495 2.97 0.495 6 1 C6 1.33 6 1.66 6 2 C4.02 2 2.04 2 0 2 C0 1.34 0 0.68 0 0 Z M6 3 C6 3.33 6 3.66 6 4 C3.69 4 1.38 4 -1 4 C-1 4.66 -1 5.32 -1 6 C-8.26 6 -15.52 6 -23 6 C-22.67 5.01 -22.34 4.02 -22 3 C-18.8339704 2.80054014 -15.66718204 2.61765572 -12.5 2.4375 C-11.613125 2.38142578 -10.72625 2.32535156 -9.8125 2.26757812 C-4.37734765 1.96784546 0.62094863 2.1516683 6 3 Z " fill="#848484" transform="translate(160,121)"/>
<path d="M0 0 C1.98 0.495 1.98 0.495 4 1 C4 1.66 4 2.32 4 3 C2.35 3 0.7 3 -1 3 C-0.67 2.01 -0.34 1.02 0 0 Z M6.85546875 4.5390625 C9.96995438 5.20847835 13.07351743 5.35661687 16.25 5.5625 C17.51328125 5.64628906 18.7765625 5.73007813 20.078125 5.81640625 C21.04234375 5.87699219 22.0065625 5.93757813 23 6 C23 6.33 23 6.66 23 7 C18.43786457 7.19718727 13.87528686 7.3810637 9.3125 7.5625 C8.01892578 7.61857422 6.72535156 7.67464844 5.39257812 7.73242188 C3.52182617 7.80493164 3.52182617 7.80493164 1.61328125 7.87890625 C-0.10701294 7.94960327 -0.10701294 7.94960327 -1.86206055 8.02172852 C-4.73841192 8.00181135 -7.21381694 7.6777202 -10 7 C-10 6.01 -10 5.02 -10 4 C-4.5387096 0.72322576 1.12695723 2.87477915 6.85546875 4.5390625 Z M0 5 C4 6 4 6 4 6 Z " fill="#6F6F6F" transform="translate(67,80)"/>
<path d="M0 0 C1.28132813 0.00902344 2.56265625 0.01804687 3.8828125 0.02734375 C5.36394531 0.04474609 5.36394531 0.04474609 6.875 0.0625 C6.565625 0.660625 6.25625 1.25875 5.9375 1.875 C4.77290296 4.15206772 4.77290296 4.15206772 3.875 7.0625 C0.245 7.3925 -3.385 7.7225 -7.125 8.0625 C-7.125 8.7225 -7.125 9.3825 -7.125 10.0625 C-8.445 9.7325 -9.765 9.4025 -11.125 9.0625 C-11.125 5.0625 -11.125 5.0625 -9.125 3.0625 C-9.125 2.4025 -9.125 1.7425 -9.125 1.0625 C-6.12186252 -0.43906874 -3.33432478 -0.03031204 0 0 Z " fill="#2D2D2D" transform="translate(83.125,66.9375)"/>
<path d="M0 0 C0.98484375 0.01804687 1.9696875 0.03609375 2.984375 0.0546875 C4.10585938 0.08949219 4.10585938 0.08949219 5.25 0.125 C5.25 1.775 5.25 3.425 5.25 5.125 C3.6 5.785 1.95 6.445 0.25 7.125 C0.25 7.785 0.25 8.445 0.25 9.125 C-1.73 9.125 -3.71 9.125 -5.75 9.125 C-5.75 7.475 -5.75 5.825 -5.75 4.125 C-6.41 3.795 -7.07 3.465 -7.75 3.125 C-8.08 3.785 -8.41 4.445 -8.75 5.125 C-9.08 4.135 -9.41 3.145 -9.75 2.125 C-6.40060119 0.09941119 -3.88037449 -0.09238987 0 0 Z " fill="#686868" transform="translate(39.75,73.875)"/>
<path d="M0 0 C3.3 0 6.6 0 10 0 C10.66 1.98 11.32 3.96 12 6 C8.04 6 4.08 6 0 6 C0 6.66 0 7.32 0 8 C-1.32 7.67 -2.64 7.34 -4 7 C-4 5.68 -4 4.36 -4 3 C-2.68 2.67 -1.36 2.34 0 2 C0 1.34 0 0.68 0 0 Z " fill="#6E6E6E" transform="translate(76,75)"/>
<path d="M0 0 C0 0.99 0 1.98 0 3 C6.27 3 12.54 3 19 3 C15.82329627 5.11780249 14.78021197 5.28920997 11.10546875 5.44921875 C9.67170898 5.51399414 9.67170898 5.51399414 8.20898438 5.58007812 C7.21189453 5.61552734 6.21480469 5.65097656 5.1875 5.6875 C4.20201172 5.73455078 3.21652344 5.78160156 2.20117188 5.83007812 C-2.68072499 6.03007524 -7.19758237 6.08441688 -12 5 C-12 4.01 -12 3.02 -12 2 C-7.8803623 0.70756464 -4.33168317 -0.26252625 0 0 Z " fill="#626262" transform="translate(96,118)"/>
<path d="M0 0 C1.32 0.66 2.64 1.32 4 2 C4 3.32 4 4.64 4 6 C2.35 6 0.7 6 -1 6 C-1 6.66 -1 7.32 -1 8 C-4.96 8 -8.92 8 -13 8 C-13 5.69 -13 3.38 -13 1 C-11.71802734 1.01740234 -11.71802734 1.01740234 -10.41015625 1.03515625 C-8.75306641 1.04869141 -8.75306641 1.04869141 -7.0625 1.0625 C-5.40927734 1.07990234 -5.40927734 1.07990234 -3.72265625 1.09765625 C-1.08552366 1.31262571 -1.08552366 1.31262571 0 0 Z " fill="#B7B7B7" transform="translate(125,39)"/>
<path d="M0 0 C3.63 0 7.26 0 11 0 C10.67 0.66 10.34 1.32 10 2 C10 2.99 10 3.98 10 5 C10 5.66 10 6.32 10 7 C7.36 7.33 4.72 7.66 2 8 C2 8.66 2 9.32 2 10 C1.34 9.67 0.68 9.34 0 9 C-2.32873375 8.31744011 -4.66182791 7.64949225 -7 7 C-7 6.67 -7 6.34 -7 6 C-5.02 6 -3.04 6 -1 6 C-0.67 4.02 -0.34 2.04 0 0 Z M-7 8 C-5.02 8 -3.04 8 -1 8 C-1.33 8.66 -1.66 9.32 -2 10 C-3.65 9.67 -5.3 9.34 -7 9 C-7 8.67 -7 8.34 -7 8 Z " fill="#0B0B0B" transform="translate(85,27)"/>
<path d="M0 0 C0 0.99 0 1.98 0 3 C-1.98 3 -3.96 3 -6 3 C-6 3.66 -6 4.32 -6 5 C-9.96 5 -13.92 5 -18 5 C-18 5.66 -18 6.32 -18 7 C-20.92528027 6.37315423 -23.41225673 5.51695295 -26 4 C-26.33 3.34 -26.66 2.68 -27 2 C-26.40461426 1.97494385 -25.80922852 1.9498877 -25.19580078 1.92407227 C-22.50530864 1.80822506 -19.8151766 1.68544804 -17.125 1.5625 C-16.18785156 1.52318359 -15.25070313 1.48386719 -14.28515625 1.44335938 C-13.38925781 1.40146484 -12.49335938 1.35957031 -11.5703125 1.31640625 C-10.32918701 1.26141968 -10.32918701 1.26141968 -9.06298828 1.20532227 C-5.82054061 0.88261238 -3.42898354 -0.09023641 0 0 Z " fill="#A4A4A4" transform="translate(166,126)"/>
<path d="M0 0 C0.66 0 1.32 0 2 0 C2 0.66 2 1.32 2 2 C2.66 2.33 3.32 2.66 4 3 C4 3.33 4 3.66 4 4 C5.32 4.66 6.64 5.32 8 6 C8 7.32 8 8.64 8 10 C8.66 10.66 9.32 11.32 10 12 C3.07 11.505 3.07 11.505 -4 11 C-3.34 10.67 -2.68 10.34 -2 10 C-2 9.34 -2 8.68 -2 8 C-1.34 7.34 -0.68 6.68 0 6 C0.16681109 2.91652174 0.16681109 2.91652174 0 0 Z M4 0 C4.99 0.33 5.98 0.66 7 1 C6.01 1.33 5.02 1.66 4 2 C4 1.34 4 0.68 4 0 Z " fill="#464646" transform="translate(148,75)"/>
<path d="M0 0 C-0.33 2.31 -0.66 4.62 -1 7 C-2.32 7 -3.64 7 -5 7 C-5 7.66 -5 8.32 -5 9 C-5.66 9 -6.32 9 -7 9 C-7 9.66 -7 10.32 -7 11 C-8.32 10.67 -9.64 10.34 -11 10 C-11 7.36 -11 4.72 -11 2 C-7.36576791 -0.32590854 -4.22911669 -0.16265833 0 0 Z M-8 3 C-7.67 3.66 -7.34 4.32 -7 5 C-6.67 4.34 -6.34 3.68 -6 3 C-6.66 3 -7.32 3 -8 3 Z " fill="#5B5B5B" transform="translate(151,46)"/>
<path d="M0 0 C3.63 0 7.26 0 11 0 C11.66 2.31 12.32 4.62 13 7 C7.16005255 8.22231458 3.22438449 7.90243583 -2 5 C-2 4.01 -2 3.02 -2 2 C-1.34 2 -0.68 2 0 2 C0 1.34 0 0.68 0 0 Z M-4 6 C-1 7 -1 7 -1 7 Z " fill="#040404" transform="translate(187,73)"/>
<path d="M0 0 C3.3 0 6.6 0 10 0 C9.67 2.31 9.34 4.62 9 7 C3.47032059 7.71033431 -1.49983036 8.30267176 -7 7 C-7 6.67 -7 6.34 -7 6 C-5.02 6 -3.04 6 -1 6 C-0.67 4.02 -0.34 2.04 0 0 Z M-7 8 C-5.02 8 -3.04 8 -1 8 C-1.33 8.66 -1.66 9.32 -2 10 C-3.65 9.67 -5.3 9.34 -7 9 C-7 8.67 -7 8.34 -7 8 Z " fill="#040404" transform="translate(38,27)"/>
<path d="M0 0 C0 2.31 0 4.62 0 7 C-2.64 7 -5.28 7 -8 7 C-8 7.66 -8 8.32 -8 9 C-9.32 8.67 -10.64 8.34 -12 8 C-11.67 6.35 -11.34 4.7 -11 3 C-10.34 3 -9.68 3 -9 3 C-9 2.34 -9 1.68 -9 1 C-6.04335481 -0.4783226 -3.25770263 -0.06032783 0 0 Z " fill="#7E7E7E" transform="translate(193,36)"/>
<path d="M0 0 C0 0.99 0 1.98 0 3 C0.763125 2.938125 1.52625 2.87625 2.3125 2.8125 C5 3 5 3 6.8125 4.5 C7.204375 4.995 7.59625 5.49 8 6 C5.69 6 3.38 6 1 6 C1 6.66 1 7.32 1 8 C0.360625 7.814375 -0.27875 7.62875 -0.9375 7.4375 C-1.9584375 7.2209375 -1.9584375 7.2209375 -3 7 C-3.33 7.33 -3.66 7.66 -4 8 C-5.66617115 8.04063832 -7.33388095 8.042721 -9 8 C-9.33 5.69 -9.66 3.38 -10 1 C-8.71073008 0.63720544 -7.41846728 0.28503302 -6.125 -0.0625 C-5.40570313 -0.25972656 -4.68640625 -0.45695312 -3.9453125 -0.66015625 C-2 -1 -2 -1 0 0 Z " fill="#929292" transform="translate(186,75)"/>
<path d="M0 0 C1.32 0.33 2.64 0.66 4 1 C4 2.32 4 3.64 4 5 C2.68 5.33 1.36 5.66 0 6 C0 6.66 0 7.32 0 8 C-0.639375 7.814375 -1.27875 7.62875 -1.9375 7.4375 C-2.9584375 7.2209375 -2.9584375 7.2209375 -4 7 C-4.33 7.33 -4.66 7.66 -5 8 C-6.68608966 8.07205511 -8.37500659 8.08386068 -10.0625 8.0625 C-10.98160156 8.05347656 -11.90070313 8.04445313 -12.84765625 8.03515625 C-13.55792969 8.02355469 -14.26820312 8.01195313 -15 8 C-15 7.01 -15 6.02 -15 5 C-14.04287109 4.92652344 -14.04287109 4.92652344 -13.06640625 4.8515625 C-12.24011719 4.77679688 -11.41382813 4.70203125 -10.5625 4.625 C-9.73878906 4.55539063 -8.91507813 4.48578125 -8.06640625 4.4140625 C-7.38449219 4.27742188 -6.70257813 4.14078125 -6 4 C-5.67 3.34 -5.34 2.68 -5 2 C-3.35 2 -1.7 2 0 2 C0 1.34 0 0.68 0 0 Z " fill="#646464" transform="translate(141,73)"/>
<path d="M0 0 C5.28 0 10.56 0 16 0 C16 1.65 16 3.3 16 5 C12.04 5 8.08 5 4 5 C3.67 4.34 3.34 3.68 3 3 C3.33 2.34 3.66 1.68 4 1 C2.68 0.67 1.36 0.34 0 0 Z " fill="#787878" transform="translate(127,116)"/>
<path d="M0 0 C0.639375 0.185625 1.27875 0.37125 1.9375 0.5625 C2.9584375 0.7790625 2.9584375 0.7790625 4 1 C4.33 0.67 4.66 0.34 5 0 C5.99 0.33 6.98 0.66 8 1 C7.67 2.65 7.34 4.3 7 6 C6.01 5.67 5.02 5.34 4 5 C2.9790625 4.7834375 2.9790625 4.7834375 1.9375 4.5625 C0 4 0 4 -2 2 C-1.34 2 -0.68 2 0 2 C0 1.34 0 0.68 0 0 Z M0 6 C1.65 6 3.3 6 5 6 C5 6.33 5 6.66 5 7 C10.61 7.33 16.22 7.66 22 8 C22 8.33 22 8.66 22 9 C13.09 9 4.18 9 -5 9 C-5 8.67 -5 8.34 -5 8 C-3.35 8 -1.7 8 0 8 C0 7.34 0 6.68 0 6 Z " fill="#050505" transform="translate(136,79)"/>
<path d="M0 0 C1.98 0 3.96 0 6 0 C5.01 1.485 5.01 1.485 4 3 C6.39763185 5.39763185 7.33273498 5.34280586 10.625 5.625 C11.44226563 5.69976562 12.25953125 5.77453125 13.1015625 5.8515625 C13.72804687 5.90054688 14.35453125 5.94953125 15 6 C15 6.33 15 6.66 15 7 C4.605 7.495 4.605 7.495 -6 8 C-6 7.34 -6 6.68 -6 6 C-4.68 5.34 -3.36 4.68 -2 4 C-2 3.34 -2 2.68 -2 2 C-1.34 2 -0.68 2 0 2 C0 1.34 0 0.68 0 0 Z M10 0 C12.64 0 15.28 0 18 0 C18 0.33 18 0.66 18 1 C15.36 1.33 12.72 1.66 10 2 C10 1.34 10 0.68 10 0 Z M6 2 C7.32 2.33 8.64 2.66 10 3 C8.68 3.33 7.36 3.66 6 4 C6 3.34 6 2.68 6 2 Z M-8 8 C-6 9 -6 9 -6 9 Z " fill="#010101" transform="translate(143,117)"/>
<path d="M0 0 C0.99 0.33 1.98 0.66 3 1 C2.67 2.98 2.34 4.96 2 7 C1.34 7 0.68 7 0 7 C0 7.66 0 8.32 0 9 C-3.96 9 -7.92 9 -12 9 C-11.67 7.35 -11.34 5.7 -11 4 C-10.071875 3.87625 -9.14375 3.7525 -8.1875 3.625 C-4.86074765 3.18466918 -4.86074765 3.18466918 -2 1 C-1.34 0.67 -0.68 0.34 0 0 Z " fill="#ABABAB" transform="translate(200,68)"/>
<path d="M0 0 C0 0.33 0 0.66 0 1 C-1.98 1 -3.96 1 -6 1 C-6 1.66 -6 2.32 -6 3 C-3.69 3.33 -1.38 3.66 1 4 C1 4.33 1 4.66 1 5 C-8.24 5 -17.48 5 -27 5 C-27 4.67 -27 4.34 -27 4 C-22.545 3.505 -22.545 3.505 -18 3 C-18 2.67 -18 2.34 -18 2 C-11.92972642 -0.1583195 -6.40629424 -0.20852314 0 0 Z " fill="#A3A3A3" transform="translate(138,130)"/>
<path d="M0 0 C5 0 10 0 15 0 C15.66 1.65 16.32 3.3 17 5 C13.7 5 10.4 5 7 5 C7 4.34 7 3.68 7 3 C2.71 3 -1.58 3 -6 3 C-6 2.67 -6 2.34 -6 2 C-4.02 2 -2.04 2 0 2 C0 1.34 0 0.68 0 0 Z " fill="#010101" transform="translate(132,131)"/>
<path d="M0 0 C2.97 0 5.94 0 9 0 C9 1.66666667 9 3.33333333 9 5 C3.555 5.495 3.555 5.495 -2 6 C-2 5.01 -2 4.02 -2 3 C-3.65 3 -5.3 3 -7 3 C-7 2.67 -7 2.34 -7 2 C-4.69 2 -2.38 2 0 2 C0 1.34 0 0.68 0 0 Z " fill="#191919" transform="translate(189,67)"/>
<path d="M0 0 C6.6 0 13.2 0 20 0 C19.01 1.485 19.01 1.485 18 3 C15.25431629 3.33112301 12.68865627 3.51230514 9.9375 3.5625 C7.26637691 3.6248339 4.66638379 3.76672833 2 4 C1.67 4.66 1.34 5.32 1 6 C-1.64 6 -4.28 6 -7 6 C-7 5.67 -7 5.34 -7 5 C-4.69 5 -2.38 5 0 5 C-0.33 4.01 -0.66 3.02 -1 2 C-0.67 1.34 -0.34 0.68 0 0 Z " fill="#2F2F2F" transform="translate(91,123)"/>
<path d="M0 0 C1.33998047 0.06960937 1.33998047 0.06960937 2.70703125 0.140625 C3.60808594 0.17671875 4.50914063 0.2128125 5.4375 0.25 C6.46810547 0.31960937 6.46810547 0.31960937 7.51953125 0.390625 C7.51953125 2.040625 7.51953125 3.690625 7.51953125 5.390625 C5.72944658 5.61214049 3.93734963 5.81744713 2.14453125 6.015625 C1.14679688 6.13164063 0.1490625 6.24765625 -0.87890625 6.3671875 C-1.73742187 6.37492187 -2.5959375 6.38265625 -3.48046875 6.390625 C-4.14046875 5.730625 -4.80046875 5.070625 -5.48046875 4.390625 C-3.17521711 0.50003419 -3.17521711 0.50003419 0 0 Z " fill="#9B9B9B" transform="translate(118.48046875,113.609375)"/>
<path d="M0 0 C2.97 0 5.94 0 9 0 C8.67 1.32 8.34 2.64 8 4 C8.33 4.66 8.66 5.32 9 6 C5.37 6 1.74 6 -2 6 C-2.33 5.34 -2.66 4.68 -3 4 C-2.34 4 -1.68 4 -1 4 C-0.67 2.68 -0.34 1.36 0 0 Z " fill="#2D2D2D" transform="translate(127,67)"/>
<path d="M0 0 C1.48831242 0.00667405 2.97660807 0.01863442 4.46484375 0.03515625 C5.22345703 0.03966797 5.98207031 0.04417969 6.76367188 0.04882812 C8.64326246 0.06064945 10.52281274 0.07858547 12.40234375 0.09765625 C12.40234375 0.42765625 12.40234375 0.75765625 12.40234375 1.09765625 C10.42234375 1.09765625 8.44234375 1.09765625 6.40234375 1.09765625 C6.40234375 1.75765625 6.40234375 2.41765625 6.40234375 3.09765625 C2.77234375 3.09765625 -0.85765625 3.09765625 -4.59765625 3.09765625 C-4.59765625 3.75765625 -4.59765625 4.41765625 -4.59765625 5.09765625 C-6.90765625 5.09765625 -9.21765625 5.09765625 -11.59765625 5.09765625 C-11.92765625 4.10765625 -12.25765625 3.11765625 -12.59765625 2.09765625 C-10.546875 1.86979167 -8.49609375 1.64192708 -6.4453125 1.4140625 C-3.24741139 0.86643039 -3.98851022 0.10826575 0 0 Z " fill="#9B9B9B" transform="translate(130.59765625,121.90234375)"/>
<path d="M0 0 C1.9375 0.375 1.9375 0.375 4 1 C4.33 1.66 4.66 2.32 5 3 C8.02934491 3.65772428 8.02934491 3.65772428 11 4 C11 4.33 11 4.66 11 5 C-1.21 5 -13.42 5 -26 5 C-26 4.67 -26 4.34 -26 4 C-25.35450195 3.97494385 -24.70900391 3.9498877 -24.04394531 3.92407227 C-21.11244106 3.80785567 -18.18123783 3.68524558 -15.25 3.5625 C-14.23421875 3.52318359 -13.2184375 3.48386719 -12.171875 3.44335938 C-11.1921875 3.40146484 -10.2125 3.35957031 -9.203125 3.31640625 C-8.30239258 3.27974854 -7.40166016 3.24309082 -6.47363281 3.20532227 C-4.20403661 3.01693593 -2.18437113 2.62633499 0 2 C0 1.34 0 0.68 0 0 Z " fill="#030303" transform="translate(26,83)"/>
<path d="M0 0 C7.92 0 15.84 0 24 0 C24 0.66 24 1.32 24 2 C23.34926514 2.02505615 22.69853027 2.0501123 22.02807617 2.07592773 C19.08101954 2.19193702 16.1342787 2.31464115 13.1875 2.4375 C11.65125977 2.49647461 11.65125977 2.49647461 10.08398438 2.55664062 C9.10107422 2.59853516 8.11816406 2.64042969 7.10546875 2.68359375 C5.74651489 2.73858032 5.74651489 2.73858032 4.36010742 2.79467773 C1.84951218 2.9208205 1.84951218 2.9208205 -1 4 C-0.67 2.68 -0.34 1.36 0 0 Z " fill="#6D6D6D" transform="translate(93,128)"/>
<path d="M0 0 C1.32 0.33 2.64 0.66 4 1 C2.68 1.33 1.36 1.66 0 2 C0 1.34 0 0.68 0 0 Z M0 2 C0.33 2.99 0.66 3.98 1 5 C3.97 5.495 3.97 5.495 7 6 C7 6.33 7 6.66 7 7 C5.10424749 7.02721176 3.20838021 7.04649136 1.3125 7.0625 C-0.27111328 7.07990234 -0.27111328 7.07990234 -1.88671875 7.09765625 C-4.72410262 7.00865425 -7.2438919 6.64939838 -10 6 C-10 5.01 -10 4.02 -10 3 C-6.52674819 1.8422494 -3.63932552 1.93133348 0 2 Z " fill="#2B2B2B" transform="translate(182,81)"/>
<path d="M0 0 C0.66 0.33 1.32 0.66 2 1 C2 2.98 2 4.96 2 7 C0.68 7 -0.64 7 -2 7 C-2 7.66 -2 8.32 -2 9 C-4.64 9 -7.28 9 -10 9 C-9.67 8.030625 -9.34 7.06125 -9 6.0625 C-7.94826637 3.37850426 -7.94826637 3.37850426 -8 2 C-7.05125 2.04125 -6.1025 2.0825 -5.125 2.125 C-1.89755144 2.34973818 -1.89755144 2.34973818 0 0 Z " fill="#939393" transform="translate(38,34)"/>
<path d="M0 0 C0.91007812 0.00902344 1.82015625 0.01804687 2.7578125 0.02734375 C3.45648438 0.03894531 4.15515625 0.05054687 4.875 0.0625 C4.545 1.3825 4.215 2.7025 3.875 4.0625 C0.905 4.0625 -2.065 4.0625 -5.125 4.0625 C-5.125 4.7225 -5.125 5.3825 -5.125 6.0625 C-6.445 5.7325 -7.765 5.4025 -9.125 5.0625 C-8.465 4.4025 -7.805 3.7425 -7.125 3.0625 C-7.125 2.4025 -7.125 1.7425 -7.125 1.0625 C-4.60024538 -0.19987731 -2.81299534 -0.03606404 0 0 Z " fill="#505050" transform="translate(122.125,66.9375)"/>
<path d="M0 0 C1.32 0.33 2.64 0.66 4 1 C4 3.64 4 6.28 4 9 C3.01 9 2.02 9 1 9 C1 9.66 1 10.32 1 11 C-0.32 10.67 -1.64 10.34 -3 10 C-3 8.68 -3 7.36 -3 6 C-2.34 6 -1.68 6 -1 6 C-1 5.34 -1 4.68 -1 4 C-1.66 3.67 -2.32 3.34 -3 3 C-2.34 3 -1.68 3 -1 3 C-0.67 2.01 -0.34 1.02 0 0 Z " fill="#656565" transform="translate(54,40)"/>
<path d="M0 0 C1.65 0 3.3 0 5 0 C4.01 0.33 3.02 0.66 2 1 C2 2.98 2 4.96 2 7 C2.66 7.33 3.32 7.66 4 8 C2 10 2 10 -1.625 10.125 C-2.73875 10.08375 -3.8525 10.0425 -5 10 C-4.67 9.01 -4.34 8.02 -4 7 C-3.34 7 -2.68 7 -2 7 C-2.33 6.01 -2.66 5.02 -3 4 C-2.67 3.34 -2.34 2.68 -2 2 C-1.34 2 -0.68 2 0 2 C0 1.34 0 0.68 0 0 Z " fill="#414141" transform="translate(32,77)"/>
<path d="M0 0 C0 1.65 0 3.3 0 5 C-2.31 5 -4.62 5 -7 5 C-7 5.66 -7 6.32 -7 7 C-8.32 6.67 -9.64 6.34 -11 6 C-11 4.68 -11 3.36 -11 2 C-7.17679443 0.57741188 -4.08718695 -0.24042276 0 0 Z " fill="#6F6F6F" transform="translate(124,74)"/>
<path d="M0 0 C0.66 0.33 1.32 0.66 2 1 C2.625 3.5625 2.625 3.5625 3 6 C1.68 6 0.36 6 -1 6 C-1 6.66 -1 7.32 -1 8 C-2.98 8 -4.96 8 -7 8 C-7 5.69 -7 3.38 -7 1 C-5.5459375 1.0309375 -5.5459375 1.0309375 -4.0625 1.0625 C-1.12534105 1.35618499 -1.12534105 1.35618499 0 0 Z " fill="#969696" transform="translate(84,35)"/>
<path d="M0 0 C0.66 0.66 1.32 1.32 2 2 C-1.96 2 -5.92 2 -10 2 C-10 2.66 -10 3.32 -10 4 C-11.65 4 -13.3 4 -15 4 C-15.33 2.35 -15.66 0.7 -16 -1 C-4.85714286 -3.12244898 -4.85714286 -3.12244898 0 0 Z " fill="#6F6F6F" transform="translate(81,123)"/>
<path d="M0 0 C1.1446875 0.0928125 1.1446875 0.0928125 2.3125 0.1875 C2.3125 1.8375 2.3125 3.4875 2.3125 5.1875 C0.0025 5.1875 -2.3075 5.1875 -4.6875 5.1875 C-4.6875 5.8475 -4.6875 6.5075 -4.6875 7.1875 C-6.0075 6.8575 -7.3275 6.5275 -8.6875 6.1875 C-8.6875 5.5275 -8.6875 4.8675 -8.6875 4.1875 C-7.6975 3.8575 -6.7075 3.5275 -5.6875 3.1875 C-5.23375 2.671875 -4.78 2.15625 -4.3125 1.625 C-2.6875 0.1875 -2.6875 0.1875 0 0 Z " fill="#828282" transform="translate(155.6875,49.8125)"/>
<path d="M0 0 C1.98 0 3.96 0 6 0 C6 2.31 6 4.62 6 7 C5.030625 7.12375 4.06125 7.2475 3.0625 7.375 C1.5465625 7.684375 1.5465625 7.684375 0 8 C-0.33 8.66 -0.66 9.32 -1 10 C-2.27351308 7.45297384 -1.80191925 6.5717055 -1.0625 3.875 C-0.86785156 3.15054688 -0.67320312 2.42609375 -0.47265625 1.6796875 C-0.31667969 1.12539063 -0.16070312 0.57109375 0 0 Z " fill="#080808" transform="translate(151,43)"/>
<path d="M0 0 C1.32 0.66 2.64 1.32 4 2 C4 2.66 4 3.32 4 4 C2.68 4 1.36 4 0 4 C0 4.66 0 5.32 0 6 C1.65 6.33 3.3 6.66 5 7 C5 7.33 5 7.66 5 8 C0.38 8 -4.24 8 -9 8 C-7.68 7.34 -6.36 6.68 -5 6 C-2.94729537 4.15811388 -2.94729537 4.15811388 -2 2 C-1.34 2 -0.68 2 0 2 C0 1.34 0 0.68 0 0 Z " fill="#888888" transform="translate(146,79)"/>
<path d="M0 0 C2.31 0 4.62 0 7 0 C7 0.33 7 0.66 7 1 C4.69 1.33 2.38 1.66 0 2 C0 1.34 0 0.68 0 0 Z M-6 2 C-4.02 2 -2.04 2 0 2 C-0.33 2.99 -0.66 3.98 -1 5 C-1.78375 5.12375 -2.5675 5.2475 -3.375 5.375 C-6.14057822 5.79117993 -6.14057822 5.79117993 -8 8 C-10.625 7.625 -10.625 7.625 -13 7 C-12.67 6.34 -12.34 5.68 -12 5 C-8.9375 4.375 -8.9375 4.375 -6 4 C-6 3.34 -6 2.68 -6 2 Z " fill="#232323" transform="translate(71,127)"/>
<path d="M0 0 C2.31 0 4.62 0 7 0 C7.33 1.65 7.66 3.3 8 5 C6.37675914 5.22162329 4.751279 5.42689803 3.125 5.625 C1.76761719 5.79902344 1.76761719 5.79902344 0.3828125 5.9765625 C-0.40351562 5.98429687 -1.18984375 5.99203125 -2 6 C-2.66 5.34 -3.32 4.68 -4 4 C-3.67 3.34 -3.34 2.68 -3 2 C-2.01 2 -1.02 2 0 2 C0 1.34 0 0.68 0 0 Z " fill="#080808" transform="translate(34,53)"/>
<path d="M0 0 C2.64 0 5.28 0 8 0 C8 1.65 8 3.3 8 5 C6.865625 5.12375 5.73125 5.2475 4.5625 5.375 C2.7990625 5.684375 2.7990625 5.684375 1 6 C0.67 6.66 0.34 7.32 0 8 C0 7.01 0 6.02 0 5 C-0.66 4.67 -1.32 4.34 -2 4 C-2 3.34 -2 2.68 -2 2 C-1.34 2 -0.68 2 0 2 C0 1.34 0 0.68 0 0 Z " fill="#030303" transform="translate(129,37)"/>
<path d="M0 0 C3.63 0 7.26 0 11 0 C11 0.99 11 1.98 11 3 C7.37 3.33 3.74 3.66 0 4 C0 4.66 0 5.32 0 6 C-1.32 5.67 -2.64 5.34 -4 5 C-4 4.34 -4 3.68 -4 3 C-3.01 2.67 -2.02 2.34 -1 2 C-0.67 1.34 -0.34 0.68 0 0 Z " fill="#373737" transform="translate(76,71)"/>
<path d="M0 0 C2.31 0 4.62 0 7 0 C7 1.65 7 3.3 7 5 C5.02 5.33 3.04 5.66 1 6 C1 6.66 1 7.32 1 8 C-0.32 7.67 -1.64 7.34 -3 7 C-2.01 7 -1.02 7 0 7 C-0.2784375 5.824375 -0.2784375 5.824375 -0.5625 4.625 C-1 2 -1 2 0 0 Z " fill="#171717" transform="translate(40,35)"/>
<path d="M0 0 C1.33881598 0.31058118 2.67109117 0.64944301 4 1 C5.74690919 1.2143934 7.4974023 1.40107653 9.25 1.5625 C10.14203125 1.64628906 11.0340625 1.73007813 11.953125 1.81640625 C12.62859375 1.87699219 13.3040625 1.93757813 14 2 C14 2.33 14 2.66 14 3 C5.42 3 -3.16 3 -12 3 C-12 2.67 -12 2.34 -12 2 C-11.21753906 1.93941406 -10.43507813 1.87882812 -9.62890625 1.81640625 C-8.61699219 1.73261719 -7.60507813 1.64882812 -6.5625 1.5625 C-5.55316406 1.48128906 -4.54382813 1.40007812 -3.50390625 1.31640625 C-1.06359221 1.26788532 -1.06359221 1.26788532 0 0 Z " fill="#B9B9B9" transform="translate(113,84)"/>
<path d="M0 0 C1.11375 0.1546875 1.11375 0.1546875 2.25 0.3125 C2.91 1.6325 3.57 2.9525 4.25 4.3125 C1.94 4.3125 -0.37 4.3125 -2.75 4.3125 C-2.75 4.9725 -2.75 5.6325 -2.75 6.3125 C-4.07 5.9825 -5.39 5.6525 -6.75 5.3125 C-3.42692308 0.38942308 -3.42692308 0.38942308 0 0 Z " fill="#767676" transform="translate(170.75,78.6875)"/>
<path d="M0 0 C0 0.66 0 1.32 0 2 C-0.66 2.66 -1.32 3.32 -2 4 C-3.01241685 5.32392972 -4.01439389 6.65599167 -5 8 C-6.32 7.67 -7.64 7.34 -9 7 C-9 5 -9 5 -7 3 C-7 2.34 -7 1.68 -7 1 C-4.53721199 -0.231394 -2.7204945 -0.07159196 0 0 Z " fill="#626262" transform="translate(66,67)"/>
<path d="M0 0 C2.4138176 0.22117559 4.83114597 0.40572242 7.25 0.5625 C8.51328125 0.64628906 9.7765625 0.73007813 11.078125 0.81640625 C12.04234375 0.87699219 13.0065625 0.93757813 14 1 C14 1.33 14 1.66 14 2 C5.75 2 -2.5 2 -11 2 C-11 1.67 -11 1.34 -11 1 C-6.76871549 -0.38330455 -4.24364363 -1.13562294 0 0 Z " fill="#B7B7B7" transform="translate(76,85)"/>
<path d="M0 0 C0 1.65 0 3.3 0 5 C-1.32 5 -2.64 5 -4 5 C-4 5.66 -4 6.32 -4 7 C-4.99 6.67 -5.98 6.34 -7 6 C-7 4.68 -7 3.36 -7 2 C-4.35261084 0.5393715 -3.10551666 0 0 0 Z " fill="#6F6F6F" transform="translate(74,38)"/>
<path d="M0 0 C3.63 0 7.26 0 11 0 C10.67 0.99 10.34 1.98 10 3 C8.68 3 7.36 3 6 3 C6 3.66 6 4.32 6 5 C4.35 5 2.7 5 1 5 C0.67 3.35 0.34 1.7 0 0 Z " fill="#A1A1A1" transform="translate(143,116)"/>
<path d="M0 0 C-0.33 0.99 -0.66 1.98 -1 3 C-4.01490557 4.00496852 -6.04181692 4.10335303 -9.1875 4.0625 C-10.53908203 4.04896484 -10.53908203 4.04896484 -11.91796875 4.03515625 C-12.60503906 4.02355469 -13.29210937 4.01195313 -14 4 C-13.37867188 3.69320312 -12.75734375 3.38640625 -12.1171875 3.0703125 C-10.01380892 2.03900883 -10.01380892 2.03900883 -8.125 0.875 C-5.34632958 -0.26915841 -2.97373305 -0.13516968 0 0 Z " fill="#5D5D5D" transform="translate(159,119)"/>
<path d="M0 0 C2.0625 0.4375 2.0625 0.4375 4 1 C4 1.66 4 2.32 4 3 C2.35 3 0.7 3 -1 3 C-1 3.66 -1 4.32 -1 5 C-3.64 5 -6.28 5 -9 5 C-9 4.01 -9 3.02 -9 2 C-6.94921875 1.77213542 -4.8984375 1.54427083 -2.84765625 1.31640625 C-0.98859771 1.18113386 -0.98859771 1.18113386 0 0 Z " fill="#ADADAD" transform="translate(127,118)"/>
<path d="M0 0 C0 0.99 0 1.98 0 3 C-1.98 3 -3.96 3 -6 3 C-6 3.66 -6 4.32 -6 5 C-7.98 5 -9.96 5 -12 5 C-12 4.01 -12 3.02 -12 2 C-7.8803623 0.70756464 -4.33168317 -0.26252625 0 0 Z " fill="#A9A9A9" transform="translate(96,118)"/>
<path d="M0 0 C1.65 0 3.3 0 5 0 C5.66 1.65 6.32 3.3 7 5 C3.8125 5.75 3.8125 5.75 0 6 C-2.9375 4.0625 -2.9375 4.0625 -5 2 C-3.35 2 -1.7 2 0 2 C0 1.34 0 0.68 0 0 Z M-2 6 C0 7 0 7 0 7 Z " fill="#000000" transform="translate(83,119)"/>
<path d="M0 0 C0 0.99 0 1.98 0 3 C-2.31 3 -4.62 3 -7 3 C-7 3.66 -7 4.32 -7 5 C-8.98 5 -10.96 5 -13 5 C-12.67 4.01 -12.34 3.02 -12 2 C-7.92532275 0.51117562 -4.33458585 -0.26270217 0 0 Z " fill="#B3B3B3" transform="translate(78,128)"/>
<path d="M0 0 C3.96 0 7.92 0 12 0 C11.67 0.99 11.34 1.98 11 3 C7.04 3 3.08 3 -1 3 C-0.67 2.01 -0.34 1.02 0 0 Z " fill="#656565" transform="translate(59,114)"/>
<path d="M0 0 C0.598125 0.20625 1.19625 0.4125 1.8125 0.625 C1.8125 1.945 1.8125 3.265 1.8125 4.625 C0.4925 4.625 -0.8275 4.625 -2.1875 4.625 C-2.1875 5.285 -2.1875 5.945 -2.1875 6.625 C-3.1775 6.295 -4.1675 5.965 -5.1875 5.625 C-5.1875 4.305 -5.1875 2.985 -5.1875 1.625 C-2.1875 -0.375 -2.1875 -0.375 0 0 Z " fill="#808080" transform="translate(200.1875,38.375)"/>
<path d="M0 0 C0 0.99 0 1.98 0 3 C-1.65 3 -3.3 3 -5 3 C-5 3.66 -5 4.32 -5 5 C-6.98 5 -8.96 5 -11 5 C-10.67 4.01 -10.34 3.02 -10 2 C-6.3962102 0.47839986 -3.94779314 0 0 0 Z " fill="#A1A1A1" transform="translate(187,70)"/>
<path d="M0 0 C0.33 0.99 0.66 1.98 1 3 C-2.3 3 -5.6 3 -9 3 C-9 2.01 -9 1.02 -9 0 C-5.93109813 -1.53445094 -3.29905734 -0.54984289 0 0 Z " fill="#0B0B0B" transform="translate(148,133)"/>
<path d="M0 0 C0 0.66 0 1.32 0 2 C-1.32 2 -2.64 2 -4 2 C-4 2.66 -4 3.32 -4 4 C-6.31 4 -8.62 4 -11 4 C-11 3.01 -11 2.02 -11 1 C-3.375 -1.125 -3.375 -1.125 0 0 Z " fill="#B5B5B5" transform="translate(100,73)"/>
<path d="M0 0 C0.99 0.33 1.98 0.66 3 1 C3 1.66 3 2.32 3 3 C1.68 3 0.36 3 -1 3 C-1 3.66 -1 4.32 -1 5 C-4.3 5 -7.6 5 -11 5 C-11 4.67 -11 4.34 -11 4 C-10.071875 3.87625 -9.14375 3.7525 -8.1875 3.625 C-4.86074765 3.18466918 -4.86074765 3.18466918 -2 1 C-1.34 0.67 -0.68 0.34 0 0 Z " fill="#B1B1B1" transform="translate(200,68)"/>
<path d="M0 0 C-2 2 -2 2 -4.3828125 2.1953125 C-5.28773437 2.17210937 -6.19265625 2.14890625 -7.125 2.125 C-8.49011719 2.09792969 -8.49011719 2.09792969 -9.8828125 2.0703125 C-10.58148438 2.04710937 -11.28015625 2.02390625 -12 2 C-12 1.34 -12 0.68 -12 0 C-7.6835078 -0.76173392 -4.25566547 -1.16063604 0 0 Z " fill="#555555" transform="translate(76,133)"/>
<path d="M0 0 C0 0.99 0 1.98 0 3 C-1.98 3 -3.96 3 -6 3 C-6 3.66 -6 4.32 -6 5 C-7.32 4.67 -8.64 4.34 -10 4 C-9.01 4 -8.02 4 -7 4 C-7 3.01 -7 2.02 -7 1 C-4.53721199 -0.231394 -2.7204945 -0.07159196 0 0 Z " fill="#8D8D8D" transform="translate(163,80)"/>
<path d="M0 0 C0 0.66 0 1.32 0 2 C-0.99 2 -1.98 2 -3 2 C-3 2.66 -3 3.32 -3 4 C-5.31 4 -7.62 4 -10 4 C-10 3.01 -10 2.02 -10 1 C-8.71073008 0.63720544 -7.41846728 0.28503302 -6.125 -0.0625 C-5.40570313 -0.25972656 -4.68640625 -0.45695312 -3.9453125 -0.66015625 C-2 -1 -2 -1 0 0 Z " fill="#B2B2B2" transform="translate(186,75)"/>
<path d="M0 0 C0.99 0.33 1.98 0.66 3 1 C1.02 1.99 1.02 1.99 -1 3 C-1 3.66 -1 4.32 -1 5 C-3.31 5 -5.62 5 -8 5 C-8 4.01 -8 3.02 -8 2 C-6.865625 1.855625 -5.73125 1.71125 -4.5625 1.5625 C-1.19222799 1.38828522 -1.19222799 1.38828522 0 0 Z " fill="#B0B0B0" transform="translate(165,74)"/>
<path d="M0 0 C1.98 0 3.96 0 6 0 C4.19587357 3.26460973 3.16605307 4.88929795 0 7 C-0.99 6.67 -1.98 6.34 -3 6 C-2.34 6 -1.68 6 -1 6 C-1.33 4.68 -1.66 3.36 -2 2 C-1.34 2 -0.68 2 0 2 C0 1.34 0 0.68 0 0 Z " fill="#050505" transform="translate(152,67)"/>
<path d="M0 0 C-0.33 0.99 -0.66 1.98 -1 3 C-4.98196457 4.05404945 -7.98195309 3.84098656 -12 3 C-12 2.67 -12 2.34 -12 2 C-7.8803623 0.70756464 -4.33168317 -0.26252625 0 0 Z " fill="#707070" transform="translate(155,132)"/>
<path d="M0 0 C3.3 0 6.6 0 10 0 C7.60236815 2.39763185 6.66726502 2.34280586 3.375 2.625 C2.55773437 2.69976562 1.74046875 2.77453125 0.8984375 2.8515625 C0.27195312 2.90054688 -0.35453125 2.94953125 -1 3 C-0.67 2.01 -0.34 1.02 0 0 Z " fill="#6F6F6F" transform="translate(116,114)"/>
<path d="M0 0 C0 0.66 0 1.32 0 2 C-1.65 2 -3.3 2 -5 2 C-5 2.66 -5 3.32 -5 4 C-6.65 4 -8.3 4 -10 4 C-7.19291889 -0.21062166 -4.92322234 -1.75829369 0 0 Z " fill="#9C9C9C" transform="translate(141,83)"/>
<path d="M0 0 C1.65 0.33 3.3 0.66 5 1 C5 1.99 5 2.98 5 4 C3.35 4 1.7 4 0 4 C-0.33 4.66 -0.66 5.32 -1 6 C-1.33 4.68 -1.66 3.36 -2 2 C-1.34 2 -0.68 2 0 2 C0 1.34 0 0.68 0 0 Z " fill="#555555" transform="translate(66,71)"/>
<path d="M0 0 C1.32 0.66 2.64 1.32 4 2 C4 2.66 4 3.32 4 4 C3.01 4 2.02 4 1 4 C1 4.66 1 5.32 1 6 C-0.32 5.67 -1.64 5.34 -3 5 C-3 3 -3 3 -1.5 1.375 C-1.005 0.92125 -0.51 0.4675 0 0 Z " fill="#6C6C6C" transform="translate(54,45)"/>
<path d="M0 0 C1.32 0.66 2.64 1.32 4 2 C4 2.66 4 3.32 4 4 C3.01 4 2.02 4 1 4 C1 4.66 1 5.32 1 6 C0.01 5.67 -0.98 5.34 -2 5 C-2 4.01 -2 3.02 -2 2 C-1.34 2 -0.68 2 0 2 C0 1.34 0 0.68 0 0 Z " fill="#5C5C5C" transform="translate(163,49)"/>
<path d="M0 0 C0.66 0.33 1.32 0.66 2 1 C1.67 2.65 1.34 4.3 1 6 C-0.98 5.34 -2.96 4.68 -5 4 C-2 2 -2 2 0 2 C0 1.34 0 0.68 0 0 Z " fill="#2D2D2D" transform="translate(148,41)"/>
<path d="M0 0 C0 1.32 0 2.64 0 4 C-1.65 4.33 -3.3 4.66 -5 5 C-5.33 3.68 -5.66 2.36 -6 1 C-4 0 -4 0 0 0 Z " fill="#575757" transform="translate(54,67)"/>
<path d="M0 0 C0 0.99 0 1.98 0 3 C-1.98 3 -3.96 3 -6 3 C-6.33 3.66 -6.66 4.32 -7 5 C-7.33 4.01 -7.66 3.02 -8 2 C-4.77208445 -0.1519437 -3.71599191 -0.20086443 0 0 Z " fill="#898989" transform="translate(168,40)"/>
<path d="M0 0 C1.98 0 3.96 0 6 0 C5.01 1.98 4.02 3.96 3 6 C2.01 5.67 1.02 5.34 0 5 C0 3.35 0 1.7 0 0 Z " fill="#000000" transform="translate(141,41)"/>
<path d="M0 0 C0 0.99 0 1.98 0 3 C-1.98 3 -3.96 3 -6 3 C-6.33 3.66 -6.66 4.32 -7 5 C-7 3.68 -7 2.36 -7 1 C-4.53721199 -0.231394 -2.7204945 -0.07159196 0 0 Z " fill="#828282" transform="translate(166,126)"/>
<path d="M0 0 C0 0.66 0 1.32 0 2 C-0.99 2 -1.98 2 -3 2 C-3 2.66 -3 3.32 -3 4 C-4.65 4 -6.3 4 -8 4 C-8 3.01 -8 2.02 -8 1 C-2.25 -1.125 -2.25 -1.125 0 0 Z " fill="#888888" transform="translate(75,47)"/>
<path d="M0 0 C0.66 0 1.32 0 2 0 C2 0.66 2 1.32 2 2 C2.66 2.33 3.32 2.66 4 3 C3.01 4.485 3.01 4.485 2 6 C1.34 5.34 0.68 4.68 0 4 C0 2.68 0 1.36 0 0 Z M4 0 C4.99 0.33 5.98 0.66 7 1 C6.01 1.33 5.02 1.66 4 2 C4 1.34 4 0.68 4 0 Z M0 6 C2 7 2 7 2 7 Z " fill="#000000" transform="translate(148,75)"/>
<path d="M0 0 C1.98 0.495 1.98 0.495 4 1 C4 1.66 4 2.32 4 3 C2.35 3 0.7 3 -1 3 C-0.67 2.01 -0.34 1.02 0 0 Z M-1 3 C-1 3.66 -1 4.32 -1 5 C-2.32 4.67 -3.64 4.34 -5 4 C-3 3 -3 3 -1 3 Z " fill="#8D8D8D" transform="translate(67,76)"/>
<path d="M0 0 C0 0.66 0 1.32 0 2 C-1.32 2 -2.64 2 -4 2 C-4 2.66 -4 3.32 -4 4 C-4.99 3.67 -5.98 3.34 -7 3 C-7 2.34 -7 1.68 -7 1 C-3.375 -1.125 -3.375 -1.125 0 0 Z " fill="#818181" transform="translate(147,47)"/>
<path d="M0 0 C1.98 0 3.96 0 6 0 C6 0.99 6 1.98 6 3 C4.02 3 2.04 3 0 3 C0 2.01 0 1.02 0 0 Z " fill="#939393" transform="translate(34,80)"/>
<path d="M0 0 C1.32 0.33 2.64 0.66 4 1 C3.67 1.99 3.34 2.98 3 4 C1.35 3.67 -0.3 3.34 -2 3 C-1.34 2.67 -0.68 2.34 0 2 C0 1.34 0 0.68 0 0 Z M-2 4 C1 5 1 5 1 5 Z " fill="#000000" transform="translate(70,43)"/>
</svg>
